<svg id="Layer_1" data-name="Layer 1" xmlns="http://www.w3.org/2000/svg" viewBox="0 0 103.92 43.08"><defs><style>.cls-1{fill:#fff;}</style></defs><path class="cls-1" d="M118.1,30.88s-6.73-1.93-10.83,1.61a8.39,8.39,0,0,0-1.6,1.87,9.06,9.06,0,0,1,2,.93c3.54,2.24,4.33,6.67,4.49,8a7.48,7.48,0,0,0,1.87-1.19C118.17,38.55,118.1,30.88,118.1,30.88Z" transform="translate(-48.5 -30.35)"/><path class="cls-1" d="M64.73,40.38a6.31,6.31,0,0,0-4.11-1.33H57.68V62.14a4.4,4.4,0,0,1-.93,3,4,4,0,0,1-3.12,1.19,8.23,8.23,0,0,1-5.13-1.35v3.38a4.13,4.13,0,0,0,1.82,3.43,9,9,0,0,0,5.26,1.4c3.71,0,6.38-1.05,8.13-2.9s2.63-4.56,2.63-8V44.08a4.66,4.66,0,0,0-1.61-3.7" transform="translate(-48.5 -30.35)"/><polygon class="cls-1" points="98.81 15.1 97.58 15.1 97.58 18.5 96.93 18.5 96.93 15.1 95.7 15.1 95.7 14.57 98.81 14.57 98.81 15.1"/><polygon class="cls-1" points="103.92 18.5 103.28 18.5 103.28 15.22 103.26 15.22 101.97 18.5 101.56 18.5 100.27 15.22 100.26 15.22 100.26 18.5 99.61 18.5 99.61 14.57 100.61 14.57 101.78 17.55 102.93 14.57 103.92 14.57 103.92 18.5"/><path class="cls-1" d="M141.09,60.79c2.06-1,3-2.51,3-5.15a9.7,9.7,0,0,0-3.54-7.82,13.79,13.79,0,0,0-8.82-2.8c-8.23,0-13.69,6.55-13.7,14.7a13.61,13.61,0,0,0,3.56,9.55c2.35,2.46,5.85,4,10.49,4,3.87,0,6.45-.78,8-1.93a5.12,5.12,0,0,0,2.23-4.29V65.38c-1.7,1-4.44,1.63-8.62,1.64a9.48,9.48,0,0,1-4.85-1,4.79,4.79,0,0,1-2.29-3.32l-.1-.49h4.6C135.69,62.16,139,61.79,141.09,60.79Zm-14.8-3.9,0-.45a6.12,6.12,0,0,1,1.44-3.63,5.16,5.16,0,0,1,4-1.53,5,5,0,0,1,3.29,1,2.92,2.92,0,0,1,1.11,2.28,1.78,1.78,0,0,1-.25,1,2,2,0,0,1-1,.76,12.45,12.45,0,0,1-4.48.53Z" transform="translate(-48.5 -30.35)"/><path class="cls-1" d="M112.62,65.92a3.38,3.38,0,0,1-1.06-2.84V53c0-2.46-.44-3.95-1.42-4.84s-2.64-1.29-5.3-1.29H102.9V64.49c0,3.16.95,5.26,2.46,6.61a9,9,0,0,0,6.11,2,6.44,6.44,0,0,0,3.59-.88,3.49,3.49,0,0,0,1.44-3.1V66.69h-.74a4.92,4.92,0,0,1-3.14-.77" transform="translate(-48.5 -30.35)"/><path class="cls-1" d="M85.18,45.32c-8.44,0-14.49,5.78-14.51,14.66,0,7.85,6.18,13.45,13.81,13.46,4.66,0,8.26-1.42,10.72-3.9S99,63.49,99,59.08A13.6,13.6,0,0,0,85.18,45.32ZM89,64.81a4.76,4.76,0,0,1-3.92,2h0a5.11,5.11,0,0,1-4.27-2c-1-1.34-1.55-3.33-1.55-6,0-3.9,2.44-6.87,5.35-6.9A5.18,5.18,0,0,1,88.86,54a9.72,9.72,0,0,1,1.56,5.87A8.29,8.29,0,0,1,89,64.81Z" transform="translate(-48.5 -30.35)"/><path class="cls-1" d="M106.76,36.8a7.12,7.12,0,0,0-2-.83,14.55,14.55,0,0,0-6.59.07s.33,4.84,3.7,7a7.39,7.39,0,0,0,1.33.64l.52.17a11,11,0,0,0,3.11.39,13.69,13.69,0,0,0,3.58-.33v-.1S110.14,38.94,106.76,36.8Z" transform="translate(-48.5 -30.35)"/></svg>