<svg id="Layer_1" data-name="Layer 1" xmlns="http://www.w3.org/2000/svg" viewBox="0 0 129.21 46.98"><defs><style>.cls-1{fill:#fff;}</style></defs><g id="Bancde_10" data-name="Bancde 10"><path class="cls-1" d="M126.13,57.56v-.5c0-.28-.16-.34-.51-.34H123V57.9h2.6C126,57.9,126.13,57.84,126.13,57.56Z" transform="translate(-35.86 -28.23)"/><path class="cls-1" d="M115.59,57.67h1.64V55h-7v6.12h7v-2.7h-1.68Zm.72,1.74v.8H111.2V56h5.06v.72h-3.91v.94h2.28v.72h-2.28v1Z" transform="translate(-35.86 -28.23)"/><path class="cls-1" d="M128.2,57.8v-1a1.62,1.62,0,0,0-.47-1.24,2.18,2.18,0,0,0-1.59-.54h-5.2v6.12h3V59.73l1.8,1.43h5L127.74,59A1.73,1.73,0,0,0,128.2,57.8Zm-.44,2.41h-1.65l-2-1.59H123v1.59h-1.13V56h4.24c.75,0,1.11.23,1.11.81v1c0,.59-.36.82-1.12.82h-.65Z" transform="translate(-35.86 -28.23)"/><path class="cls-1" d="M137.57,55h-3.43A1.85,1.85,0,0,0,132,57v2.22a1.87,1.87,0,0,0,2.19,1.95h3.41a1.87,1.87,0,0,0,2.19-1.95V57.88h0V56.8C139.7,55.63,139,55,137.57,55Zm1.23,2-1.12.17v-.47h-3.6v2.67h3.59v-.94H135.8v-.72h3v1.45c0,.79-.3,1-1.23,1h-3.41c-.93,0-1.23-.21-1.23-1V57c0-.79.3-1,1.23-1h3.41c.9,0,1.23.2,1.23,1Z" transform="translate(-35.86 -28.23)"/><path class="cls-1" d="M103.24,57l-2.73-2H98.46v6.14l3,0V59.2l2.74,2h2V55h-3Zm1,1.21V56h1v4.22h-.79l-3.63-2.61a4.1,4.1,0,0,1-.41-.34,5.86,5.86,0,0,1,0,.67V60.2h-1V56h.79l3.48,2.48a4.15,4.15,0,0,1,.56.46C104.21,58.58,104.2,58.34,104.2,58.2Z" transform="translate(-35.86 -28.23)"/><path class="cls-1" d="M148.06,55l-1.33,1.25L145.41,55H141l4.09,3.71v2.42h3.08V58.73L152.29,55Zm-.84,3.26v1.91h-1.16V58.32L143.5,56H145l1.7,1.61L148.44,56h1.35Z" transform="translate(-35.86 -28.23)"/><path class="cls-1" d="M93.12,57.67h1.63V55h-7v6.12h7V58.45H93.12Zm.72,1.74v.79H88.73V56H93.8v.72H89.88v.94h2.28v.72H89.88v1Z" transform="translate(-35.86 -28.23)"/><path class="cls-1" d="M98,41.73v.08l0,.7a5.54,5.54,0,0,0,0,1.41,5.59,5.59,0,0,1-.07,1.3l-.07.87,0,1.54a5.33,5.33,0,0,0,1.94-1.31,14.36,14.36,0,0,0,.36-2.73,4.6,4.6,0,0,0-.23-1.51A8.61,8.61,0,0,0,98,41.73Z" transform="translate(-35.86 -28.23)"/><path class="cls-1" d="M76.38,49.32a.09.09,0,0,0,0,0v0Z" transform="translate(-35.86 -28.23)"/><path class="cls-1" d="M95.58,41.59l-.31.2a1.27,1.27,0,0,1-1.48.2,1.41,1.41,0,0,0-.06.4,6.41,6.41,0,0,0,.78,2.66,6.7,6.7,0,0,0,1.31,1.8l-.09-1.36a2.71,2.71,0,0,1,0-.29c0-.53,0-1.09.1-1.63s.08-1.08.08-1.57c0-.14,0-.28,0-.41Z" transform="translate(-35.86 -28.23)"/><path class="cls-1" d="M86.54,40h0l0-.07Z" transform="translate(-35.86 -28.23)"/><path class="cls-1" d="M85.51,40.39a.44.44,0,0,0,.1.26h0a.81.81,0,0,1-.11-.27Z" transform="translate(-35.86 -28.23)"/><path class="cls-1" d="M163.45,48.19a16.91,16.91,0,0,1-2.94-3.5l.2,0a1.13,1.13,0,0,0,.85-1l0-.41a.82.82,0,0,1,.22-.56,2.7,2.7,0,0,0,.62-1.33l0-.29a1.16,1.16,0,0,0-.33-1l-.54-.51,0,0-.88-.78a1.08,1.08,0,0,0-.74-.29h-.09l-.25,0a2.55,2.55,0,0,0-1,.23l-.08,0h-.09l-.69,0h-.06c-.34,0-.69,0-1.06,0l-.58,0h-.1l-.09,0-.12,0a2.12,2.12,0,0,0-1.32-.46,2,2,0,0,0-1,.24l-.11.06-.18.11c-.74.45-1.08.64-1.21.71a1.88,1.88,0,0,0-1.16.63l-.22-.3,0,0a2.91,2.91,0,0,0-1.92-.91l-.23,0-.52.11-.14,0h0a11.91,11.91,0,0,0-1.48-.08h-.74a2.22,2.22,0,0,0-1.5-.6,2.16,2.16,0,0,0-.66.1l-.07,0a1,1,0,0,0-.37.21l-.38.24a.24.24,0,0,0-.08.06,1.4,1.4,0,0,1-.63.34,2.21,2.21,0,0,0-1.27.49,2,2,0,0,0-.67-.72l-.08,0a2.14,2.14,0,0,0-1.26-.45,2.71,2.71,0,0,0-.66.1l-.1,0h0l-.38.12h0a1,1,0,0,1-.42.05h-4.58l-2,0h0l-.17-.06-.52-.13a1.33,1.33,0,0,0-.28,0,3.15,3.15,0,0,0-2.11,1,2,2,0,0,0-.59-.22,3.49,3.49,0,0,1-.9-.46l0,0-.66-.39-.09,0a2.63,2.63,0,0,0-1.16-.28,2.87,2.87,0,0,0-1.37.38l-.08,0c-.22.08-1,.25-1.3.3h0c-.51.11-.94.2-1.26.3a2.06,2.06,0,0,0-.66-.11,2,2,0,0,0-1.14.36,3.39,3.39,0,0,0-.37.28l-.22.13a1.84,1.84,0,0,0-1.14,1.22,1.8,1.8,0,0,0,.37,1.64c.24.41.6,1,1,1.56l.56.85a2.08,2.08,0,0,0,1.66,1H120a2.17,2.17,0,0,0,1.49-.58l.06,0h.74A13.29,13.29,0,0,1,121,48.43l0,0-1.07-.79a2.57,2.57,0,0,0-1.57-.57,2.5,2.5,0,0,0-.84.16,2.16,2.16,0,0,0-1.14,1,3,3,0,0,0-.24-1l0-.07c0-.94,0-5.69,0-7.36a1.79,1.79,0,0,0,.52-1.21v0a1.92,1.92,0,0,0-1-1.63l-.08,0-.09,0h0a3,3,0,0,1-.61-.49l-.09-.08a1.15,1.15,0,0,0-.53-.26l-.38-.13a1.34,1.34,0,0,0-.35,0,2,2,0,0,0-2,1.92,1.13,1.13,0,0,0,.12.51s.29.59.3.59v.26s0,1.53,0,2.93l-.77-.61-3.84-3a1.09,1.09,0,0,0-.69-.24,1.12,1.12,0,0,0-.73.27l-.35.3a2.66,2.66,0,0,1-.92.45l-1.21.42a1.3,1.3,0,0,0-.31.16l-.46-.26-.38-.23A2.06,2.06,0,0,0,101,39a3.14,3.14,0,0,0-.89.15h0a1.41,1.41,0,0,1-.31.08h0l-.43,0c0-.12,0-.23,0-.35s0-.14,0-.28a2.21,2.21,0,0,0-.62-2l-.13-.1a1.1,1.1,0,0,0-.21-.14,2,2,0,0,0-1-.25,2.46,2.46,0,0,0-.52,0l-.08,0-.11,0-.16,0h0a2.21,2.21,0,0,0-.54-.07l-.35,0a1.33,1.33,0,0,0-.83.6,2.11,2.11,0,0,0-.19,1.52,2.46,2.46,0,0,0,.3.79l-.66,0a2.29,2.29,0,0,0-1.3-.45,1.72,1.72,0,0,0-1,.33,8.05,8.05,0,0,1-1.38.79L89.7,40A2.5,2.5,0,0,0,89,39.5h0a7.57,7.57,0,0,1-1.28-.78,2.16,2.16,0,0,0-1.3-.43,2.12,2.12,0,0,0-1.54.64,1.82,1.82,0,0,0-.43.7A20.88,20.88,0,0,0,81.61,43c-2.75-3.77-3.32-4.16-3.52-4.29l-.29-.2a1.1,1.1,0,0,0-1.13-.08l-1,.48L74,39.69a1.13,1.13,0,0,0-.27,1.84l.64.59.06,0,.09.33a28.3,28.3,0,0,1-.11,4.15A2.54,2.54,0,0,0,74,48.37a2.22,2.22,0,0,0,.91,1.53L75,50a2,2,0,0,0,1.07,1.08,2.06,2.06,0,0,0,.73.14A1.86,1.86,0,0,0,78,50.8a1.83,1.83,0,0,0,.72-1.47,1.48,1.48,0,0,0,0-.21h0s0-.3,0-1.33v-.55l.93,1.24a2.13,2.13,0,0,0,1.64,1h.08A1.87,1.87,0,0,0,82.48,49a4.58,4.58,0,0,0,.93-.34l.83-.41A1,1,0,0,0,84.6,48c0,.79,0,3.51,0,3.51a1.87,1.87,0,0,0,1.7,1.87h.21a2,2,0,0,0,1.55-.79l.35-.21L89,52a2,2,0,0,0,1-1.71,3,3,0,0,0-.26-1.12l0-.1c0-.26-.1-1.3-.09-4.94v-1.5l.16-.15h0v.23a8.64,8.64,0,0,0,4.33,7.42,1.54,1.54,0,0,0,.21.29,1.35,1.35,0,0,0,0,.4l.13,1a2.45,2.45,0,0,0,1.36,1.88l.24.12a1.11,1.11,0,0,0,.94,0l.06,0h.31a2,2,0,0,0,1.7-1,2.92,2.92,0,0,0,.09-2.31l0-.19,0,0,1-.46a7.83,7.83,0,0,0,2.78-1.7h0c.67-.72.83-1.94,1-4.36l.06-.61.08-.13c0,.44,0,.89,0,1.29v1.25c0,.87,0,1.26,0,1.43a2.81,2.81,0,0,0-.36,1.31,2.45,2.45,0,0,0,.86,1.79l.06.06,0,0a1.93,1.93,0,0,0,1.75,1.1,1.85,1.85,0,0,0,1.32-.54,1.91,1.91,0,0,0,.56-1.38l0-4.12c1.47,1.14,3.13,2.48,3.79,3l0,.4,0,.64v.07a1.85,1.85,0,0,0,1.84,1.9h0a2,2,0,0,0,1.62-.87.35.35,0,0,0,.05-.08l.06-.08a1.42,1.42,0,0,1,.23-.31,2.1,2.1,0,0,0,.49-.65,1.9,1.9,0,0,0,.8,1.4l.92.74.6.48,0,.13a.76.76,0,0,0,.15.28,2.6,2.6,0,0,0,2.22.86c4.14,0,6.54-5.45,7.44-7.49v0h0a2.09,2.09,0,0,0,.46-1.62,2,2,0,0,0,1.33-1c.16-.29.2-.33.29-.37a3.42,3.42,0,0,1,.65,0c0,1.55-.13,3.76-.19,4.29h0a2.5,2.5,0,0,0-.18,2.05,2.1,2.1,0,0,0,1.21,1.16,5.7,5.7,0,0,1,.65.3,1.94,1.94,0,0,0,1.55.74,1.55,1.55,0,0,0,.31,0,1.83,1.83,0,0,0,1.61-1.79V46.67c0-2.18,0-3.41.08-4.1h.11a4.39,4.39,0,0,1,1,.08l.06.13A2,2,0,0,0,139,43.84a2.09,2.09,0,0,0,.69-.12,2,2,0,0,0,.84-.56v1.22c0,1.47,0,2.16-.06,2.47a2.35,2.35,0,0,0-.51,1.37v0a2.44,2.44,0,0,0,0,.39,2.05,2.05,0,0,0,1.29,1.49h0l.48.19h0l.47.19a2,2,0,0,0,1.49.69l.32,0a1.65,1.65,0,0,0,.76-.32l.9,0c.54,0,1.81,0,2.95-.13a2.4,2.4,0,0,0,.71.19h.15a2.47,2.47,0,0,0,2-1.2l.19.12c.15.11.34.27.44.36a2,2,0,0,0,1.74,1,1.87,1.87,0,0,0,1.88-1.76h0c0-.14,0-.51,0-1.91V45.92a27,27,0,0,1,1.52,2.46l0,0A12.6,12.6,0,0,0,160,52.06l0,0a2.62,2.62,0,0,0,1.53.61h0a2,2,0,0,0,1.36-.57,2,2,0,0,1,.46-.23h0a1.83,1.83,0,0,0,1.63-1.58C165.22,48.93,164,48.39,163.45,48.19Zm-79-1.81-.3-.22.47-.69v1.08Zm4.67-5a.76.76,0,0,1-.61.57v.16c0,.74,0,1.4,0,2a43.8,43.8,0,0,0,.12,5.24l.09.22a1.9,1.9,0,0,1,.18.7.88.88,0,0,1-.47.77l-.54.34a4.34,4.34,0,0,0-.61.39.82.82,0,0,1-.82.45.75.75,0,0,1-.7-.75v-.89c0-2.83,0-4.92,0-6.38,0-.92,0-1.57,0-2a28.3,28.3,0,0,0-3,4.15,2.2,2.2,0,0,0,.31.35l.74.56-.84.41a2.87,2.87,0,0,1-.85.29L82,48h0a.81.81,0,0,1-.65.31,1.1,1.1,0,0,1-.8-.53l-2-2.68-.92-1.22c0,1.09,0,2.71,0,3.88,0,.76,0,1.33,0,1.44a.49.49,0,0,1,0,.12.72.72,0,0,1-.29.59.79.79,0,0,1-.8.11.81.81,0,0,1-.48-.57,2.38,2.38,0,0,0-.41-.46,1.09,1.09,0,0,1-.48-.77,1.53,1.53,0,0,1,.36-1.11,21.32,21.32,0,0,0,.16-4.9l-.11-.41c0-.19-.05-.26-.36-.52l-.64-.59,1.69-.81,1-.49.28.2a47.42,47.42,0,0,1,4.18,5.32,24.11,24.11,0,0,1,3.66-4.55l.12-.1,0,0s0,0,0,0a.76.76,0,0,1,.22-.52A1,1,0,0,1,87,39.61a7.89,7.89,0,0,0,1.5.91.85.85,0,0,1,.58.76A.44.44,0,0,1,89.1,41.41Zm14,1a1.13,1.13,0,0,0-.21.47l-.07.7c-.17,2.16-.31,3.27-.72,3.7a7,7,0,0,1-2.42,1.46l-1.24.57a1.21,1.21,0,0,1-.48.43v.49l.1.47a2.1,2.1,0,0,1,0,1.5.94.94,0,0,1-.89.48h-.34l-.31.13-.24-.12a1.31,1.31,0,0,1-.75-1l-.12-1,.63.23a2.36,2.36,0,0,0,0-.44c0-.13,0-.29,0-.48l-.21,0a.93.93,0,0,1-.87-.59v0a.86.86,0,0,0-.25-.16,7.55,7.55,0,0,1-3.82-6.48c0-.12,0-.23,0-.35s0-.12,0-.17,0-.19-.19-.34L90,41.08l.93-.27a8.35,8.35,0,0,0,1.7-1c.44-.32.91,0,1.22.24l.17.11c.36,0,1.12-.08,2-.09a5,5,0,0,0,.11-.9,1.11,1.11,0,0,0-.08-.46l-.11-.23a1.45,1.45,0,0,1-.21-.52c-.08-.35,0-.75.16-.8s.49.14.84.06l.25-.05.13,0a1.15,1.15,0,0,1,.82.1h0l.09.07a1.13,1.13,0,0,1,.25,1s0,.29,0,.3c0,.48,0,1-.09,1.47.5,0,1,.07,1.49.12a2,2,0,0,0,.79-.11,1.22,1.22,0,0,1,1.15.08l.46.28a2.75,2.75,0,0,1,1.09.85h0a.64.64,0,0,1,.11.38A1.1,1.1,0,0,1,103.05,42.39ZM115,39.26c0,.11,0,8.12,0,8.12a1,1,0,0,0,.1.29,2,2,0,0,1,.17.71.85.85,0,0,1-.32.69,2.88,2.88,0,0,0-.42.54l0,0v0a.94.94,0,0,1-.73.43.73.73,0,0,1-.72-.78l0-.64,0-.52a1.48,1.48,0,0,0,0-.49c-.45-.46-4.38-3.6-6-4.79,0,.92.08,6.41.08,6.41a.76.76,0,0,1-.76.79.8.8,0,0,1-.74-.49l0-.06v0a1.06,1.06,0,0,0-.25-.31,1.36,1.36,0,0,1-.53-1,2,2,0,0,1,.29-.89l0-.07a8.93,8.93,0,0,0,.08-1.78V44.21c0-.64,0-1.29,0-1.93v-.07c0-.31,0-.75-.25-.87l-1.11-.62,1.21-.43a3.59,3.59,0,0,0,1.27-.64l.36-.31,3.84,3,1,.81.66.53c.28.23.59.46.89.69,0-.33,0-5.21,0-5.21v-.56a.34.34,0,0,0-.13-.25l-.29-.57a.86.86,0,0,1,.87-.81l.51.17h0l.09.08a4.3,4.3,0,0,0,.84.65l0,0,.05,0a.82.82,0,0,1,.46.69A.68.68,0,0,1,115,39.26Zm12.5,5.7-.09.14,0,.07c-.82,1.87-3,6.84-6.42,6.84-.38,0-1.06,0-1.32-.4l-.15-.43-.85-.68-.95-.75a.82.82,0,0,1-.36-.67.28.28,0,0,1,0-.09.94.94,0,0,1,.62-.74,1.32,1.32,0,0,1,1.3.26l1.11.81.24.16a1,1,0,0,0,1,0c.64-.41,1.86-3.38,2.06-4.76a.17.17,0,0,0,0-.16l0,0h-2.17a1.1,1.1,0,0,0-.65.24l0,0a1.09,1.09,0,0,1-.89.38,1,1,0,0,1-.78-.49l-.57-.88c-.38-.56-.8-1.19-1-1.59l0,0a.71.71,0,0,1-.18-.67.78.78,0,0,1,.54-.51l.36-.21.34-.26a1,1,0,0,1,1.08,0l.07,0,.26-.09a11.16,11.16,0,0,1,1.32-.32,11,11,0,0,0,1.54-.38l.09,0a1.59,1.59,0,0,1,1.58-.1l.65.39a4,4,0,0,0,1.31.62.74.74,0,0,1,.56.48.69.69,0,0,1-.17.71.87.87,0,0,1-.83.26l-.18,0a3,3,0,0,0-.76-.08l-.38.09a5.6,5.6,0,0,1-1.63.18l-1.16-.1-.82-.08-.29,0a4.9,4.9,0,0,0,.55.79h2.83a.86.86,0,0,0,.59-.2,1.18,1.18,0,0,1,1.55.34,2.15,2.15,0,0,0,.8.58,1.08,1.08,0,0,1,.56.64A1,1,0,0,1,127.46,45Zm11.89-2.3a.91.91,0,0,1-1.1-.39l-.09-.19c-.1-.2-.15-.3-.55-.47a6.66,6.66,0,0,0-2.51-.08,44.7,44.7,0,0,0-.18,5.14v2.66a.71.71,0,0,1-.65.68.81.81,0,0,1-.88-.4,4.09,4.09,0,0,0-1.05-.54,1,1,0,0,1-.6-.55,1.4,1.4,0,0,1,.17-1.14l.07-.15a45.58,45.58,0,0,0,.23-4.65c0-.43,0-.79,0-1a6.28,6.28,0,0,0-2.15.05,1.65,1.65,0,0,0-.86.88,1,1,0,0,1-1.24.35.7.7,0,0,1-.39-.94l.13-.39a3.37,3.37,0,0,1,.47-1.13,2,2,0,0,1,1.25-.58l.52.13a1,1,0,0,0,.48.1h6.31a2.29,2.29,0,0,0,1-.11l.35-.11.11,0a1,1,0,0,1,1,.19l.09.07c.37.21.44.66.53,1.24,0,0,.09.48.09.51A.76.76,0,0,1,139.35,42.66Zm11.68,1c0,.78,0,1.39,0,1.85a2.11,2.11,0,0,0-.36-.09l-.3,0a1.92,1.92,0,0,0-1.8,1.28l0,.09a.29.29,0,0,0,0,.09l-.19.06a10,10,0,0,1-2.78.11,6.92,6.92,0,0,1,0-.85V46.1h.19a1.9,1.9,0,0,0,1.5.74,1,1,0,0,0,.42-.09l.54-.22a1.09,1.09,0,0,0,.61-.62l.22-.55a1.2,1.2,0,0,0,.08-.27,1.54,1.54,0,0,1,.12-.34.08.08,0,0,1,0-.05c0-.11.08-.22.11-.32h.15a2.06,2.06,0,0,0,.7-.12A2,2,0,0,0,151,43.65Zm-.11,5c-.1.44-.64,1.25-1.38,1.21a.85.85,0,0,1-.55-.23,28.72,28.72,0,0,1-4.27.14l-.28,0a.71.71,0,0,1-.52.38.83.83,0,0,1-.87-.43,5.55,5.55,0,0,0-.83-.36l-.46-.19a.92.92,0,0,1-.62-.68.55.55,0,0,1,0-.18,1.37,1.37,0,0,1,.45-.91,19.81,19.81,0,0,0,.11-2.94c0-.57,0-1.25,0-2.05V42a.83.83,0,0,1-.67-.74s0,0,0,0a.86.86,0,0,1,.9-.79,2.31,2.31,0,0,0,1.23-.57l.56-.35h0l.07,0a1,1,0,0,1,1.21.49s0,.07,0,.1a14.27,14.27,0,0,1,2.68,0,.79.79,0,0,0,.5-.07l.51-.11a1.84,1.84,0,0,1,1.11.57,2.69,2.69,0,0,1,.49,1.3s.11.52.11.54a.75.75,0,0,1-.55.85.87.87,0,0,1-1.07-.35c-.3-.54-.57-1-1-1.11a7.13,7.13,0,0,0-3.18,0,4.93,4.93,0,0,0-.15,1.3,2.12,2.12,0,0,0,0,.37,21,21,0,0,0,2.17,0h0v0a.91.91,0,0,1,1.51-.05.88.88,0,0,1,0,.86,3.06,3.06,0,0,0-.22.68l-.22.54-.53.22a.75.75,0,0,1-.77-.75,11.37,11.37,0,0,0-1.94.14,4,4,0,0,0-.1,1.07,6.06,6.06,0,0,0,.2,1.79,9.58,9.58,0,0,0,4.06,0c.68-.2.83-.4,1-.93a.8.8,0,0,1,.87-.52.7.7,0,0,1,.59.71A7.37,7.37,0,0,1,150.92,48.61Zm12.27,2.17h0a3.15,3.15,0,0,0-1,.47c-.55.55-1,.29-1.51-.08a12.68,12.68,0,0,1-2.32-3.34c-.74-1.31-1.75-3.1-2.34-3.28a2.31,2.31,0,0,0-1.22.46c0,.38-.05.94-.05,1.57v1s0,1.83,0,1.84a.75.75,0,0,1-.6.7.94.94,0,0,1-1-.5h0a4.73,4.73,0,0,0-.75-.67,1.19,1.19,0,0,1-.65-.72,1,1,0,0,1,0-.29,1.75,1.75,0,0,1,.3-.86,35.07,35.07,0,0,0,.13-4V42a.86.86,0,0,1-.61-.38.84.84,0,0,1-.09-.37.8.8,0,0,1,.11-.4.9.9,0,0,1,.68-.35,10.61,10.61,0,0,0,1.49-.84,2.8,2.8,0,0,1,.25-.14h0a1,1,0,0,1,1.22.29.83.83,0,0,1,.08.28,3,3,0,0,1,.78-.27h.07a10.63,10.63,0,0,1,1.49,0,5.13,5.13,0,0,0,1.19,0l.19-.07a1.39,1.39,0,0,1,.84-.14H160l.88.78.54.51,0,.29a1.8,1.8,0,0,1-.4.82,1.78,1.78,0,0,0-.44,1.12l-.05.4-.4.1a8.22,8.22,0,0,0-1.2.42,1.07,1.07,0,0,1,.58.93c.19.57,2.62,3.8,3.58,4.22.47.19,1,.41.94.94C163.92,50.39,163.76,50.69,163.19,50.78Z" transform="translate(-35.86 -28.23)"/><path class="cls-1" d="M157.18,41.39l-.21.09a1.32,1.32,0,0,1-.65.18l.08,0-.14,0h.06l-.51-.22a2.42,2.42,0,0,0-1.26,1.88c.71-.23,1.59-.48,2.33-.69l1-.27c.29-.1.51-.71.51-1A3.79,3.79,0,0,0,157.18,41.39Z" transform="translate(-35.86 -28.23)"/><path class="cls-1" d="M64.12,69.42l-.71-.82a2.33,2.33,0,0,0-.07-.52,3.34,3.34,0,0,1-.08-.7,1.1,1.1,0,0,1-.21-.6,4.42,4.42,0,0,1,.18-1.34v-.35l0-.21,0-.09a1.54,1.54,0,0,0,.1-.44c-.06-.18-.14-.33-.21-.5a3.49,3.49,0,0,1-.42-1.7l.48-.67c.21-.08.25-.09.23-.85l.15-.45c0-.07-.09-.21-.13-.3a1.59,1.59,0,0,1-.22-1.27l.07-.14.48-.79V56.8l0-.21a1.61,1.61,0,0,0,.08-.74l.06,0a3.94,3.94,0,0,1,0-1.87V53.4l.07-.31,0-.05L64,52.91l0-.2-.05-1.16c0-.12-.12-.24-.19-.37a2.48,2.48,0,0,1-.38-1.82.78.78,0,0,1,0-.16l.14-.49a.44.44,0,0,0-.06.1,10.25,10.25,0,0,0,.28-1.19,1.81,1.81,0,0,1-.36-.68c0-.1-.06-.18-.09-.26l-.1-.1a1.65,1.65,0,0,1-.4-.49l-.07-.31v-.34h0a1.43,1.43,0,0,1-.17-1.23.7.7,0,0,1,.15-.24l0-.47,0-.29a.6.6,0,0,1,.08-.19v0a1,1,0,0,0,.08-.19l-.15-.16a1.7,1.7,0,0,1-.57-1l.35-.73a4.15,4.15,0,0,0,.68-.7,1.25,1.25,0,0,1-.27-.69l.15-.52-.05.07a6.17,6.17,0,0,0,.23-.59l0-.08a1.79,1.79,0,0,1-.13-.77c0-.17.07-.46.13-.71a1.35,1.35,0,0,0,0-.18,1.36,1.36,0,0,1,0-.54,1.05,1.05,0,0,1,.05-.19.9.9,0,0,1-.2-.39,5.44,5.44,0,0,1-.88-.32,2.88,2.88,0,0,1-.92.18l-.38-.11,0,0a5.09,5.09,0,0,0-.5-.16l-.24-.13a1.66,1.66,0,0,1-.23-.23l0,0h-.13l-.34,0-.42,0a1.45,1.45,0,0,1-.88-.25l.15-1.24a1.2,1.2,0,0,0,.39-.37,1.88,1.88,0,0,1,1.11-.79,1.52,1.52,0,0,1,.38-.05h.47a.86.86,0,0,0,.18-.12,1.7,1.7,0,0,1,1.11-.45l.07,0,.14-.05h0a2.62,2.62,0,0,0,.3-.68l.67-.61a1.13,1.13,0,0,0,.85-.36,2.91,2.91,0,0,1,.58-.44l1.06.48a.53.53,0,0,0,0,.11l.27,0a2.73,2.73,0,0,1,.91.15,1.75,1.75,0,0,1,.71.69l.12.18a1,1,0,0,1,.79,1.13l-.13.3.53.37a1,1,0,0,0,.08.25A2.51,2.51,0,0,1,69,34a1.1,1.1,0,0,1-.14.53,1.19,1.19,0,0,1,.4.76.75.75,0,0,1-.19.53,8.39,8.39,0,0,0-.59.93l0,.55-.4.7a2.1,2.1,0,0,0-.3.22v0a.89.89,0,0,1-.24.74,1.21,1.21,0,0,1-.2.51,1.39,1.39,0,0,1-.2,1l0,0a3.09,3.09,0,0,1-.33.48,3.08,3.08,0,0,0-.2.26c0,.06,0,.15.06.22a3.07,3.07,0,0,1,.13.83l-.1.07.1.81,0,.35a.2.2,0,0,0,0,.08,1.32,1.32,0,0,1,.61.94l-.23.6a.17.17,0,0,0,0,0,.77.77,0,0,0-.07.27.35.35,0,0,0,0-.1l-.06.57a2.13,2.13,0,0,0-.23,1.71c0,.09.17.24.28.39.49.65,1.23,1.62.82,2.66l0,.07a1,1,0,0,1,0,.75,10.49,10.49,0,0,1-.58,1.36A10.83,10.83,0,0,0,66.8,54a.5.5,0,0,1,.08.12l.08.55,0,.11a1.94,1.94,0,0,1,.36.55,2.73,2.73,0,0,1-.59,2.53l-.1.14v.13h0a.3.3,0,0,1,0,.1h0l0,.11a.94.94,0,0,1,.15.22,2.59,2.59,0,0,1,.18,1.1v.17A1.5,1.5,0,0,1,66.67,61a.45.45,0,0,1,0,.16.63.63,0,0,1,0,.24,1.09,1.09,0,0,1,0,.18v0a1.78,1.78,0,0,1,0,.72c0,.1,0,.23,0,.28l0,.06a2.8,2.8,0,0,1,.19.82,1.88,1.88,0,0,1-.53,1.18l-.15.2a5.22,5.22,0,0,0-.25.59,4.79,4.79,0,0,1-.26.64,4,4,0,0,1-.3.53v0c-.1.17-.2.33-.26.46a2.55,2.55,0,0,0,.13.82l0,.54a2.39,2.39,0,0,1-.31.47l-.13.18-.6.33Z" transform="translate(-35.86 -28.23)"/><path class="cls-1" d="M68.53,35.32c0-.16-.46-.53-.6-.62h0a1.05,1.05,0,0,1,.19-.34.73.73,0,0,0,.17-.34,2.05,2.05,0,0,0-.13-.53,3,3,0,0,1-.11-.32h0a1.43,1.43,0,0,1-.38-.1L67.4,33h0a1.08,1.08,0,0,1,.24-.64c0-.41-.08-.42-.22-.44a.62.62,0,0,1-.31-.14,1.72,1.72,0,0,1-.26-.33c-.13-.19-.26-.39-.38-.44a2.22,2.22,0,0,0-.67-.1c-.46,0-.85,0-1-.7a2.5,2.5,0,0,0-.47.35,1.79,1.79,0,0,1-1.29.54,3.06,3.06,0,0,1-.53,1.14.65.65,0,0,1-.25.12.45.45,0,0,0-.27.15h0l-.11-.09a1,1,0,0,0-.69.29,1.23,1.23,0,0,1-.42.25,1,1,0,0,1-.25,0h-.43a.44.44,0,0,0-.21,0c-.31,0-.51.28-.73.54a1.71,1.71,0,0,1-.67.58.75.75,0,0,0,.46.11l.36,0,.4,0a1.29,1.29,0,0,1,.42.06.59.59,0,0,1,.27.22l.14.14a4.78,4.78,0,0,1,.65.23,1.94,1.94,0,0,0,.93-.27h0a4,4,0,0,0,1.35.49h0v.17h.17c0,.4.11.45.41.56l.07,0h0a.63.63,0,0,1-.15.28.6.6,0,0,0-.14.26,1.06,1.06,0,0,0,0,.28,1,1,0,0,1,0,.49,4.45,4.45,0,0,0-.12.62h0a1.28,1.28,0,0,0,.1.46,1.78,1.78,0,0,1,.08.31,4.86,4.86,0,0,1-.35,1c0,.28.18.45.52.57h0a4.86,4.86,0,0,1-1.29,1.5,1.06,1.06,0,0,0,.37.55,1.45,1.45,0,0,1,.34.44,1,1,0,0,1-.12.72,1.47,1.47,0,0,0-.06.14l.06.78a.58.58,0,0,1-.13.15.4.4,0,0,0-.11.12c-.07.18.06.44.16.63l.08.18v.5a1.32,1.32,0,0,0,.23.27,1.17,1.17,0,0,1,.24.27,3.28,3.28,0,0,1,.15.38.9.9,0,0,0,.43.61h0a8.68,8.68,0,0,1-.41,1.81c0,.06,0,.11,0,.11s0,0,0,0l.09-.06,0,0a1.64,1.64,0,0,0,.21,1.65,3.72,3.72,0,0,1,.27.57l0,.6,0,.66a.56.56,0,0,0,.11.11l.07.07a.4.4,0,0,1-.11.45l-.07.1V54a3,3,0,0,0,.06,1.8v0h0l-.06,0h0a2.33,2.33,0,0,1-.12,1v1.09h0c-.2.32-.4.63-.59,1a.92.92,0,0,0,.17.71c.17.34.35.69.07,1.06,0,.79,0,1.28-.71,1.54a2.79,2.79,0,0,0,.34,1.4,5.58,5.58,0,0,1,.25.58A1.59,1.59,0,0,1,64,65l0,.09v.45a4,4,0,0,0-.18,1.22.71.71,0,0,0,.15.32l.09.13h0A1.72,1.72,0,0,0,64,68a2.24,2.24,0,0,1,.08.75h.1l.17-.23a3.14,3.14,0,0,0,.24-.35,2.35,2.35,0,0,1-.12-1.31c.08-.18.2-.38.31-.57a4.93,4.93,0,0,0,.28-.48,4.25,4.25,0,0,0,.23-.57,3.78,3.78,0,0,1,.3-.7,2.32,2.32,0,0,1,.21-.29,1.36,1.36,0,0,0,.38-.74,3.48,3.48,0,0,0-.16-.61l0-.07a1.59,1.59,0,0,1,0-.54.79.79,0,0,0,0-.5h0v-.16s0-.26,0-.29h0l0,0s0-.17,0-.18h0a1,1,0,0,1,.06-.32l.1-.16c.12-.18.3-.44.25-.61a2.2,2.2,0,0,1,0-.3,2.24,2.24,0,0,0-.1-.78.73.73,0,0,0-.15-.16.73.73,0,0,1-.15-.16h0l.06-.08s0,0,0,0a.28.28,0,0,1,0-.08h-.11v0a.59.59,0,0,0,0-.27.69.69,0,0,1,.08-.41l.14-.2a2.08,2.08,0,0,0,.51-1.87,1.29,1.29,0,0,0-.27-.37,1.17,1.17,0,0,1-.2-.27h0v0c0-.14.07-.27.1-.41a.41.41,0,0,0-.09-.1A.28.28,0,0,1,66,54a10,10,0,0,1,.63-1.49,13.14,13.14,0,0,0,.55-1.27.45.45,0,0,0-.09-.36.38.38,0,0,1-.09-.28.76.76,0,0,1,.1-.13l.08-.09c.26-.66-.31-1.42-.73-2a3.81,3.81,0,0,1-.33-.47,2.78,2.78,0,0,1,.23-2.41,1.21,1.21,0,0,1,.24-.86c0-.35-.47-.55-.78-.7l0,0h0a.9.9,0,0,1,.18-.44,1.06,1.06,0,0,0,.12-.2l-.12-1v-.06h0l.11,0a2.68,2.68,0,0,0-.11-.66,1.13,1.13,0,0,1-.07-.55,1.53,1.53,0,0,1,.34-.55,2.36,2.36,0,0,0,.25-.36.43.43,0,0,1,0-.07.83.83,0,0,0,.14-.51l0,0c0-.07-.09-.2,0-.29l.1-.17a.51.51,0,0,0,.13-.46h0a1.47,1.47,0,0,1,.15-.17c.11-.12.14-.15,0-.32h0c.08-.07.1-.13.06-.17h0a1.54,1.54,0,0,1,.7-.68l0-.5v-.22a7.54,7.54,0,0,1,.76-1.28S68.54,35.34,68.53,35.32Z" transform="translate(-35.86 -28.23)"/><path class="cls-1" d="M53.81,75.22l-.7-.58a3.11,3.11,0,0,1,.22-2c0-.06.05-.11.07-.17v-.5l.17-.28v-.81l0,0a3.56,3.56,0,0,1-.38-1.38,1,1,0,0,1-.15-.34l0,0a1.5,1.5,0,0,1-.44-.46s-.48-1-.16-1.45a2.7,2.7,0,0,1,.25-.34l.13-.17a1.24,1.24,0,0,1-.08-.4c0-.12-.1-.41-.12-.48s0,0,0,0l-.07-.31V65a1.32,1.32,0,0,1-.07-1,1,1,0,0,1,.14-.26,1.09,1.09,0,0,1-.08-.93,1.71,1.71,0,0,0,.12-.59l-.11-.3-.23-.28a4.18,4.18,0,0,0,0-.43,6.59,6.59,0,0,1,.07-2.56c-.05-.11-.08-.2-.11-.27v0l0,0a2.24,2.24,0,0,1-.71-1.65l.17-.45a2,2,0,0,0,.25-.53,4.38,4.38,0,0,1,.23-.54v0a1.27,1.27,0,0,1,.14-.73A1.34,1.34,0,0,1,52.6,54l.09-1,.13-.11,0-.91,0-.2a3,3,0,0,1,.27-.54c.14-.25.3-.53.25-.68s-.16-.53-.23-.78l0-.05c-.07-.26-.15-.5-.22-.7l0-.23v-.08a1.06,1.06,0,0,1-.38-.53,1.66,1.66,0,0,1,.05-.9l0-.11,0-.06a1.87,1.87,0,0,1,0-.82,5,5,0,0,0,.13-.72c0-.2.05-.4.09-.6a1,1,0,0,1,0-.14,2.09,2.09,0,0,0,.08-.5l-.12-.09a2.28,2.28,0,0,1-.4-.37c-.31-.42-.22-1-.07-1.77,0-.09,0-.22,0-.27v-.28l-.1-.15a.76.76,0,0,1,0-.47,3.08,3.08,0,0,1-.13-1.94l.09-.26c0-.12.13-.38.17-.54l-.14-.07a1.42,1.42,0,0,1-.84-1,1.71,1.71,0,0,1-.08-.72v-.07l.33-.32a4.65,4.65,0,0,1,0-1.16.93.93,0,0,1-.27-.42l.17-.29a4.32,4.32,0,0,1-.35-.46c-.23-.34-.33-.45-.45-.46l-.35.21a7.27,7.27,0,0,1-.73-.23,1.31,1.31,0,0,0-.5-.13,1.4,1.4,0,0,0-.41.07c0,.11.08.24.13.4l-.19.71-.16.15h0a2.63,2.63,0,0,1,.1.43s0,.13,0,.15v0l-.56,1a.18.18,0,0,0,.09-.06,1.2,1.2,0,0,1-.4.29l-.21.05-.19,0a1.29,1.29,0,0,0-.28.41,2,2,0,0,0,0,.8,5.63,5.63,0,0,1,.05.59l.1,0,.26.19a1.32,1.32,0,0,1,.22.94v0l-.15.42a.36.36,0,0,0,0-.1.19.19,0,0,0,0,.08,1.56,1.56,0,0,1-.14.52,4.12,4.12,0,0,1-.37.58c-.1.14-.2.28-.26.38s-.08.43-.11.66a1,1,0,0,1,.29.39,1.65,1.65,0,0,1,.06.94,1,1,0,0,0,0,.15v0l-.08.09a1.3,1.3,0,0,1,0,.49.09.09,0,0,0,0,.05l.09.13a1.81,1.81,0,0,1,.24.37,1.48,1.48,0,0,1,.13.68v.13a3.05,3.05,0,0,1,.13.32c.16.37.31.75.49,1.1l.1.12a1.41,1.41,0,0,1,.49,1.35,3,3,0,0,1-.51.94,2.59,2.59,0,0,0-.2.31.5.5,0,0,0,0,.15,1.77,1.77,0,0,1-.2.55l-.08.12a1.31,1.31,0,0,1,.3.8l-.16.47c.06-.08.08-.14.09-.14a6.37,6.37,0,0,0-.17,1,1.5,1.5,0,0,1,.61.67,3.4,3.4,0,0,1-.37,2,6.2,6.2,0,0,0-.28,1,8.75,8.75,0,0,1-.29,1.11l-.07.2a4.33,4.33,0,0,0-.3,1.19,3.09,3.09,0,0,0,.23,1l0,.08,0,.16c0,.15,0,.31,0,.47l0,0a1.62,1.62,0,0,1,.23.93l0,.15-.3.8,0,.1a1.57,1.57,0,0,1,.06.79,2.45,2.45,0,0,1-.21.52l-.06.14,0,0a1.42,1.42,0,0,1,.17.39,1.62,1.62,0,0,1,0,.65c0,.06,0,.14,0,.16v.21c-.07.5-.14,1-.22,1.52a4.68,4.68,0,0,1,.06.6,4.72,4.72,0,0,0,.14.88l0,.2v.39l.06.1a3.63,3.63,0,0,1,.26.56,1.44,1.44,0,0,1-.14,1.17,1,1,0,0,1,.14.28l-.68.92h-.22l-.66-.45-.07-.11a1.71,1.71,0,0,1-.24-.47,1.42,1.42,0,0,1,0-1v0l-.08-.1a2.14,2.14,0,0,1-.49-.69,7.28,7.28,0,0,1-.42-2.25,7.74,7.74,0,0,0-.25-1.7,8.25,8.25,0,0,1-.21-.89,7.64,7.64,0,0,0-.24-1,4,4,0,0,0-.18-.36,5,5,0,0,1-.32-.74A1.21,1.21,0,0,1,44,61a1.25,1.25,0,0,0-.08-.12,3.49,3.49,0,0,1-.33-.61,1.73,1.73,0,0,1,.11-1.21l0-.1-.19-.15a1.72,1.72,0,0,1-.8-1.15l.36-.72c.06,0,.14-.26.18-.38a2.82,2.82,0,0,1,.18-.45,2.67,2.67,0,0,1,.3-.49A2.58,2.58,0,0,0,44,55.2a4.46,4.46,0,0,0-.13-1.56l0-.24c0-.25,0-.52,0-.78l-.25-.17-.07-.06-.3-.6a2.71,2.71,0,0,1,.21-.9,1.81,1.81,0,0,0,.09-.29,2.65,2.65,0,0,0,0-.45,5.07,5.07,0,0,1,0-.68v0l0-.4c-.13-.46-.24-.91-.34-1.34a12.51,12.51,0,0,0-.65-2.21,4.79,4.79,0,0,0-.39-.64,6.2,6.2,0,0,1-.5-.86,2,2,0,0,1,.18-1.5l0,0c.06-.41.11-.82.16-1.22l0-.14c.07-.21.14-.41.22-.61.13-.36.27-.72.36-1.07a1,1,0,0,1-.1-1c.16-.41.16-.41,0-.88l-.07-.18-.06-.27V37l-.15-.1a1.63,1.63,0,0,1-.9-1.06l.24-.66,0,0,0,0a3.21,3.21,0,0,1-.12-.31,1.31,1.31,0,0,0-.07-.19,1.76,1.76,0,0,0-.79-.36H40l-.27-.06a5.8,5.8,0,0,0-1.94-.41,2.4,2.4,0,0,0-1,.18l-1-.66v-.07l.28-.57.2-.15a3.75,3.75,0,0,1,1.12-.68l.18,0,.69,0,0,0a1.46,1.46,0,0,1,.38-.22,1.36,1.36,0,0,1,.34-.08.85.85,0,0,1,.19-.19,1.37,1.37,0,0,1,.47-.2l.07,0-.07,0,.55-.12a4.82,4.82,0,0,0,.82.07,2.56,2.56,0,0,0,1-.15,2,2,0,0,0,.31-.22,3.27,3.27,0,0,1,.66-.43l.19-.05h.09a1.17,1.17,0,0,1,.88-.66l.66.23a2,2,0,0,1,.29.51.58.58,0,0,0,.05.11c.23.24.6.32,1.45.32h.52l.6.28,0,.06a3.09,3.09,0,0,1,1.21-.46l.23-.3,0,0a1.4,1.4,0,0,1,.84-.35l.44.1-.06,0a1.87,1.87,0,0,0,.48.05h.06a1.83,1.83,0,0,1,1.41-.71,2.54,2.54,0,0,1,.59-.11,1.68,1.68,0,0,0,.29,0,2.37,2.37,0,0,0,.34-.15,4.35,4.35,0,0,1,.6-.25l.06-.11,0,0a1.25,1.25,0,0,1,1-.39l.69.51a.73.73,0,0,0,.1.24l.21.06a5.21,5.21,0,0,1,.71.25l.19.12.58.52a1.07,1.07,0,0,0,.19.07,1.36,1.36,0,0,1,1.11,1.14l-.07.11a1.23,1.23,0,0,1,1.23,1l-.51.82L60,33h0a1,1,0,0,1-.35.24,1.75,1.75,0,0,1-.46.11l-.09,0s-.09.12-.13.17v0l-.17.22-.06,0v.27l-.07.29a1.84,1.84,0,0,1-.62.7l-.15.13a1.09,1.09,0,0,1-.31.78l0,0,.1.32a1.38,1.38,0,0,1-.05,1.34l0,.06a2.81,2.81,0,0,0,.26.3l.16.18a1.59,1.59,0,0,1,0,1.58c0,.11-.11.28-.13.36a2.58,2.58,0,0,0,.19.53v0l.12.28a2.8,2.8,0,0,1,.14.74,1.84,1.84,0,0,0,0,.29,1.55,1.55,0,0,1-.59,1.87l0,0a4.08,4.08,0,0,1-.33,2.2c0,.06.05.12.07.17l.13.33,0,.22v.29a12.68,12.68,0,0,1,.48,1.28A3.06,3.06,0,0,1,58.38,50l-.11.69-.08.23a2.35,2.35,0,0,1-.49.57,1.63,1.63,0,0,0-.23.22,1.42,1.42,0,0,0-.13.25,2.74,2.74,0,0,1-.21.42v.09a1.61,1.61,0,0,1-.06.63,1.7,1.7,0,0,1-.38.67l0,0,0,.34-.11.31-.14.2a4.81,4.81,0,0,0-.27.44v.12a1.32,1.32,0,0,1-.06.56h0l.11.08a1.38,1.38,0,0,1-.07,1.41,2.18,2.18,0,0,1,.12.22,1.39,1.39,0,0,1-.06,1.14.89.89,0,0,1,0,.56,1.26,1.26,0,0,0,.05.77,1.12,1.12,0,0,1-.34,1.26,1.85,1.85,0,0,1,.08.47c0,.25,0,.52,0,.85s0,.62,0,.86a2.34,2.34,0,0,1-.15.77.35.35,0,0,1,0,.08l.1.3,0,.4a1.47,1.47,0,0,1,.1.13,3.22,3.22,0,0,1,.65,1,1.57,1.57,0,0,1-.35,1.41v0l0,.88,0,.24a3.8,3.8,0,0,1-.24.61v0a2.09,2.09,0,0,1,0,1.07,1.06,1.06,0,0,1-.21.29v.11a2.32,2.32,0,0,1,0,.52l0,1.19-.27.44v0a1.24,1.24,0,0,1-.32.77l-.14.15c-.26.28-.32.35-.32.6l-.72.71Z" transform="translate(-35.86 -28.23)"/><path class="cls-1" d="M58.81,32.69a.88.88,0,0,1,.3-.07,1.15,1.15,0,0,0,.28-.07.38.38,0,0,0,.14-.09.42.42,0,0,1,.21-.13c-.06-.32-.37-.35-.67-.37a2,2,0,0,1-.38-.07c-.14,0-.16,0-.2-.08a.42.42,0,0,0-.15-.1h0c0-.27.07-.43.24-.5,0-.32-.32-.42-.62-.52a2.15,2.15,0,0,1-.38-.15l-.65-.59a4.47,4.47,0,0,0-.61-.21c-.39-.11-.61-.16-.8-.78-.37,0-.43.06-.53.16a.59.59,0,0,1-.16.15v.14h0a2.5,2.5,0,0,0-.74.26,2.92,2.92,0,0,1-.44.19,1.93,1.93,0,0,1-.43.07,1.53,1.53,0,0,0-.51.11h0a1.2,1.2,0,0,0-1.15.66v0h0a2.76,2.76,0,0,1-.44,0,1.92,1.92,0,0,1-.8-.12.82.82,0,0,0-.45.19.7.7,0,0,1-.3.17v.14h-.18v0h0a.12.12,0,0,0-.05.1v0h0a2.06,2.06,0,0,0-1.35.68h0a1.52,1.52,0,0,1-.65-.54h-.55a2.48,2.48,0,0,1-2-.55.85.85,0,0,1-.18-.32,1.17,1.17,0,0,0-.17-.31.49.49,0,0,0-.39.34.56.56,0,0,1-.26.29h0l-.32,0a2.7,2.7,0,0,0-.5.33,2.14,2.14,0,0,1-.44.3,3.29,3.29,0,0,1-1.34.22,5.35,5.35,0,0,1-1-.08.85.85,0,0,1-.24.09.58.58,0,0,0-.23.09.16.16,0,0,0,0,.1.21.21,0,0,1-.07.13.84.84,0,0,1-.31.08,1.51,1.51,0,0,0-.28,0,.76.76,0,0,0-.2.13,1,1,0,0,1-.27.15h0l-.82,0a3,3,0,0,0-.9.56l-.21.16v.07a3.11,3.11,0,0,1,1.26-.24,6.42,6.42,0,0,1,2.21.47h.59a2.49,2.49,0,0,1,1.24.6,1.34,1.34,0,0,1,.22.43,1.12,1.12,0,0,0,.25.47h0a1.62,1.62,0,0,1-.35.64c0,.26.3.42.56.57a1.34,1.34,0,0,1,.49.41h0v.36a1.42,1.42,0,0,1,.08.18,1.39,1.39,0,0,1,0,1.41.39.39,0,0,0,.08.4.36.36,0,0,1,.1.32,12.7,12.7,0,0,1-.43,1.32c-.07.19-.15.39-.22.59-.06.44-.11.87-.17,1.31l-.06.14c-.11.26-.29.69-.18.94a4.49,4.49,0,0,0,.44.74,5,5,0,0,1,.44.76,13,13,0,0,1,.7,2.33c.11.47.22.95.36,1.43l-.06.55c0,.16,0,.37,0,.57a2.45,2.45,0,0,1,0,.65,2.34,2.34,0,0,1-.12.41,2.13,2.13,0,0,0-.17.67l.08.06a2.61,2.61,0,0,0,.56.34h0l-.06,1.21a4.72,4.72,0,0,1,.11,2,2.32,2.32,0,0,1-.33.59,2.66,2.66,0,0,0-.25.41,3.88,3.88,0,0,0-.15.36,1.24,1.24,0,0,1-.5.77,1.05,1.05,0,0,0,.52.68,1.18,1.18,0,0,1,.48.54.89.89,0,0,1-.09.54,1.12,1.12,0,0,0-.09.73,3.46,3.46,0,0,0,.26.45c.15.23.29.46.27.55a.84.84,0,0,1-.16.29.59.59,0,0,0-.19.57,3.51,3.51,0,0,0,.26.6,3.55,3.55,0,0,1,.21.44A6.1,6.1,0,0,1,45.15,64c.06.29.11.56.19.82a8.2,8.2,0,0,1,.29,1.86,6.65,6.65,0,0,0,.36,2,1.41,1.41,0,0,0,.35.47,1.42,1.42,0,0,1,.24.3.7.7,0,0,1,0,.57.76.76,0,0,0,0,.52,1.2,1.2,0,0,0,.15.3,1,1,0,0,1,.14.24H47a.71.71,0,0,0-.12-.18.3.3,0,0,1-.11-.36l.08-.17a.85.85,0,0,0,.15-.73,2.69,2.69,0,0,0-.2-.43,1.4,1.4,0,0,1-.15-.3v-.54a4.6,4.6,0,0,1-.17-1,5.15,5.15,0,0,0-.07-.65l.24-1.62a1.21,1.21,0,0,1,0-.33,1.34,1.34,0,0,0,0-.4,1.5,1.5,0,0,0-.11-.22.62.62,0,0,1-.13-.51,2.16,2.16,0,0,1,.14-.33,2.47,2.47,0,0,0,.16-.39,1.17,1.17,0,0,0-.06-.43,1,1,0,0,1-.06-.39c.07-.18.14-.37.2-.55l.15-.4a1,1,0,0,0-.15-.5.67.67,0,0,1-.08-.18l-.06-.58,0-.08a4,4,0,0,1-.27-1.24,5,5,0,0,1,.35-1.4A1.46,1.46,0,0,1,46.8,57c.12-.36.19-.7.27-1a6.64,6.64,0,0,1,.31-1.14,4,4,0,0,0,.36-1.49c-.05-.14-.2-.23-.34-.33a.88.88,0,0,1-.31-.26,5.27,5.27,0,0,1,.23-1.68.85.85,0,0,0-.46-.67h0a1,1,0,0,1,.23-.47,1.09,1.09,0,0,0,.13-.17,1.06,1.06,0,0,0,.12-.34,1.22,1.22,0,0,1,.11-.34c.07-.12.16-.24.25-.38a2.26,2.26,0,0,0,.4-.7c.07-.27-.14-.49-.32-.68a1.53,1.53,0,0,1-.21-.27c-.2-.39-.36-.79-.52-1.17a3.05,3.05,0,0,0-.13-.32.81.81,0,0,1,0-.4.78.78,0,0,0-.06-.37,1.59,1.59,0,0,0-.17-.25,2.1,2.1,0,0,1-.19-.3.73.73,0,0,1,0-.43.33.33,0,0,0,0-.29h0l0,0h.06a.79.79,0,0,1,0-.37,1,1,0,0,0,0-.56c0-.08-.11-.13-.2-.19s-.13-.08-.15-.13A4.75,4.75,0,0,1,46.32,41a3.85,3.85,0,0,1,.34-.52A2.92,2.92,0,0,0,47,40,.73.73,0,0,0,47,39.7a.63.63,0,0,1,.11-.35v0c0-.16,0-.36-.06-.44a.38.38,0,0,0-.16,0h-.22a.29.29,0,0,1-.14,0h-.13a1.94,1.94,0,0,0,.08-1.15,2.5,2.5,0,0,1,0-1.12,1.64,1.64,0,0,1,.71-.86l.33,0h0a.39.39,0,0,0,.17-.12.5.5,0,0,1,.35-.15,1.14,1.14,0,0,1-.08-.32.81.81,0,0,0-.15-.43h0a.65.65,0,0,1,.28-.65l.13-.12a2.58,2.58,0,0,0-.29-.72h0c0-.36.07-.38.31-.45l.17,0a2.35,2.35,0,0,1,.78-.16,1.93,1.93,0,0,1,.76.18,4.72,4.72,0,0,0,.63.2l0-.12a.14.14,0,0,0,0-.09h0l.11,0h.06c.49,0,.74.41,1,.76a1.79,1.79,0,0,0,.61.64h0a.58.58,0,0,1-.06.23h0l-.29,0c0,.14.15.18.29.23l.06,0h0c0,.11,0,.27,0,.44,0,.46-.11,1.08,0,1.19h0a.54.54,0,0,1-.06.27h-.35v.05a.76.76,0,0,0,.06.47h0c0,.33.23.44.47.57a1,1,0,0,1,.47.38c.16.2,0,.75-.16,1.11a1.7,1.7,0,0,0-.07.21A2.49,2.49,0,0,0,53.11,41a.12.12,0,0,1-.06.18s-.07,0-.06.09.13.31.12.52v.12a3.37,3.37,0,0,1-.06.38c-.08.4-.2,1-.06,1.2a1.56,1.56,0,0,0,.26.23,1.24,1.24,0,0,1,.33.31,1.59,1.59,0,0,1,0,1l0,.13a4.68,4.68,0,0,0-.08.54,6.82,6.82,0,0,1-.15.82,1.17,1.17,0,0,0,0,.49,1.15,1.15,0,0,1,0,.24,1.67,1.67,0,0,1,0,.24,1.16,1.16,0,0,0-.07.52.45.45,0,0,0,.22.23.47.47,0,0,1,.19.18v.41c.08.22.15.48.23.76s.16.51.24.78a1.6,1.6,0,0,1-.31,1.26,2.86,2.86,0,0,0-.22.42l-.06,1H53.4l-.06.62c0,.2,0,.39-.05.6a1.37,1.37,0,0,1-.21.2,1.37,1.37,0,0,0-.21.2.73.73,0,0,0,0,.35.56.56,0,0,1-.06.38,2.07,2.07,0,0,0-.21.47,2.65,2.65,0,0,1-.38.75,1.59,1.59,0,0,0,.53,1.15l0,.06a.68.68,0,0,1,.13.27c0,.13.09.26.22.32h0a5.6,5.6,0,0,0-.18,2.53,3.56,3.56,0,0,1,.06.59l.07,0,.1,0h0l.12.32a1.86,1.86,0,0,1-.12,1.1.45.45,0,0,0,.1.44.61.61,0,0,1,.07.14c0,.16-.06.32-.14.45a.65.65,0,0,0-.09.15.64.64,0,0,0,.08.5.59.59,0,0,1,0,.08v.63c0,.1.17.64.18.68v0c0,.21,0,.21.17.29h0a1.41,1.41,0,0,1-.38.77c-.08.1-.15.19-.21.28a2.3,2.3,0,0,0,.18.72,1.25,1.25,0,0,0,.26.25.81.81,0,0,1,.21.2.3.3,0,0,1,.07.21s0,.09.16.24h0s0,0,0,0a3.86,3.86,0,0,0,.25,1.17l.09,0,.08,0h0v1.41h0l-.17.08v.64c0,.1-.08.2-.11.29a2.44,2.44,0,0,0-.19,1.64H54a1.46,1.46,0,0,1,.52-1.08l.13-.14a.61.61,0,0,0,.15-.38.86.86,0,0,1,.09-.34s.06,0,.13-.07l0,0,0-.63,0-.64a1.59,1.59,0,0,0,0-.4,1.25,1.25,0,0,1,.09-.6.19.19,0,0,1,.09,0s.07,0,.09,0a2.17,2.17,0,0,0,0-.69c0-.19,0-.29,0-.3a2.47,2.47,0,0,0,.29-.63l0-.46,0-.63a1.31,1.31,0,0,1,.16-.26c.15-.22.35-.5.25-.78a2.94,2.94,0,0,0-.52-.81,2.42,2.42,0,0,1-.24-.33l-.06-.58a.3.3,0,0,0-.13-.07c-.06,0-.09,0-.1-.07s0-.26.1-.5a1.93,1.93,0,0,0,.13-.54c0-.29,0-.62,0-1a7.23,7.23,0,0,0,0-.77,1.88,1.88,0,0,0-.07-.36.93.93,0,0,1-.05-.37.6.6,0,0,1,.21-.24.46.46,0,0,0,.2-.57A2,2,0,0,1,55.5,59c0-.09-.11-.36-.11-.36h0a.8.8,0,0,1,.08-.21.75.75,0,0,0,.09-.64.86.86,0,0,0-.13-.2c-.09-.09-.14-.15,0-.4l0-.13h0c.08-.09.35-.52.18-.8l-.18,0h0c.06,0,0-.09,0-.18a.32.32,0,0,1,0-.36.64.64,0,0,0,.07-.41.94.94,0,0,1,.05-.4,3.68,3.68,0,0,1,.34-.59l.13-.18,0-.25,0-.25a1,1,0,0,1,.16-.25,1.22,1.22,0,0,0,.25-.43,1.29,1.29,0,0,0,0-.39.69.69,0,0,1,.09-.47,3.76,3.76,0,0,0,.18-.35,1.42,1.42,0,0,1,.23-.42,2.13,2.13,0,0,1,.3-.3,1.55,1.55,0,0,0,.35-.38l.11-.77a8.25,8.25,0,0,0-.76-2.53h0v-.46l-.11-.28c-.1-.23-.19-.46-.13-.58A3.68,3.68,0,0,0,57,44.09a.27.27,0,0,0-.12-.15h0a.8.8,0,0,1,.39-.6.87.87,0,0,0,.37-1.12,2.41,2.41,0,0,1-.07-.43,2.63,2.63,0,0,0-.1-.56l-.12-.28a3.57,3.57,0,0,1-.24-.72,1.67,1.67,0,0,1,.17-.7c.13-.35.27-.7.13-.88l-.12-.14a1.93,1.93,0,0,1-.47-.68.7.7,0,0,1,.11-.47.7.7,0,0,0,.07-.71,3.49,3.49,0,0,1-.24-.91.55.55,0,0,1,.2-.2l.1-.08a.41.41,0,0,0,.09-.31.61.61,0,0,1,.08-.32,2.12,2.12,0,0,1,.34-.32,1.48,1.48,0,0,0,.43-.44v-.69h0l.22-.08.13-.18A1.21,1.21,0,0,1,58.81,32.69Z" transform="translate(-35.86 -28.23)"/><path class="cls-1" d="M64.34,30.53a1.79,1.79,0,0,1-1.29.54,3.06,3.06,0,0,1-.53,1.14.65.65,0,0,1-.25.12.45.45,0,0,0-.27.15h0l-.11-.09a1,1,0,0,0-.69.29,1.23,1.23,0,0,1-.42.25,1,1,0,0,1-.25,0h-.43a.44.44,0,0,0-.21,0c-.31,0-.51.28-.73.54a1.71,1.71,0,0,1-.67.58.75.75,0,0,0,.46.11l.36,0,.4,0a1.29,1.29,0,0,1,.42.06.59.59,0,0,1,.27.22l.14.14a4.78,4.78,0,0,1,.65.23,1.94,1.94,0,0,0,.93-.27h0a4,4,0,0,0,1.35.49h0v.17h.17c0,.4.11.45.41.56l.07,0h0a.63.63,0,0,1-.15.28.6.6,0,0,0-.14.26,1.06,1.06,0,0,0,0,.28,1,1,0,0,1,0,.49,4.45,4.45,0,0,0-.12.62h0a1.28,1.28,0,0,0,.1.46,1.78,1.78,0,0,1,.08.31,4.86,4.86,0,0,1-.35,1c0,.28.18.45.52.57h0a4.86,4.86,0,0,1-1.29,1.5,1.06,1.06,0,0,0,.37.55,1.45,1.45,0,0,1,.34.44,1,1,0,0,1-.12.72,1.47,1.47,0,0,0-.06.14l.06.78a.58.58,0,0,1-.13.15.4.4,0,0,0-.11.12c-.07.18.06.44.16.63l.08.18v.5a1.32,1.32,0,0,0,.23.27,1.17,1.17,0,0,1,.24.27,3.28,3.28,0,0,1,.15.38.9.9,0,0,0,.43.61h0a8.68,8.68,0,0,1-.41,1.81c0,.06,0,.11,0,.11s0,0,0,0l.09-.06,0,0a1.64,1.64,0,0,0,.21,1.65,3.72,3.72,0,0,1,.27.57l0,.6,0,.66a.56.56,0,0,0,.11.11l.07.07a.4.4,0,0,1-.11.45l-.07.1V54a3,3,0,0,0,.06,1.8v0h0l-.06,0h0a2.33,2.33,0,0,1-.12,1v1.09h0c-.2.32-.4.63-.59,1a1,1,0,0,0,.17.72c.17.33.35.68.07,1,0,.79,0,1.29-.71,1.54a2.79,2.79,0,0,0,.34,1.4,5.58,5.58,0,0,1,.25.58A1.59,1.59,0,0,1,64,65l0,.09v.45a4,4,0,0,0-.18,1.22.71.71,0,0,0,.15.32l.09.13h0A1.72,1.72,0,0,0,64,68a2.24,2.24,0,0,1,.08.75h.1l.17-.23a3.14,3.14,0,0,0,.24-.35,2.35,2.35,0,0,1-.12-1.31c.08-.18.2-.38.31-.57a4.93,4.93,0,0,0,.28-.48,4.25,4.25,0,0,0,.23-.57,3.78,3.78,0,0,1,.3-.7,2.32,2.32,0,0,1,.21-.29,1.36,1.36,0,0,0,.38-.74,3.48,3.48,0,0,0-.16-.61l0-.07a1.59,1.59,0,0,1,0-.54.79.79,0,0,0,0-.5h0v-.16s0-.26,0-.29h0l0,0s0-.17,0-.18h0a1,1,0,0,1,.06-.32l.1-.16c.12-.18.3-.44.25-.61a2.2,2.2,0,0,1,0-.3,2.24,2.24,0,0,0-.1-.78.73.73,0,0,0-.15-.16.73.73,0,0,1-.15-.16h0l.06-.08s0,0,0,0a.28.28,0,0,1,0-.08h-.11v0a.59.59,0,0,0,0-.27.69.69,0,0,1,.08-.41l.14-.2a2.08,2.08,0,0,0,.51-1.87,1.29,1.29,0,0,0-.27-.37,1.17,1.17,0,0,1-.2-.27h0v0c0-.14.07-.27.1-.41a.41.41,0,0,0-.09-.1A.28.28,0,0,1,66,54a10,10,0,0,1,.63-1.49,13.14,13.14,0,0,0,.55-1.27.45.45,0,0,0-.09-.36.38.38,0,0,1-.09-.28.76.76,0,0,1,.1-.13l.08-.09c.26-.66-.31-1.42-.73-2a3.81,3.81,0,0,1-.33-.47,2.78,2.78,0,0,1,.23-2.41,1.21,1.21,0,0,1,.24-.86c0-.35-.47-.55-.78-.7l0,0h0a.9.9,0,0,1,.18-.44,1.06,1.06,0,0,0,.12-.2l-.12-1v-.06h0l.11,0a2.68,2.68,0,0,0-.11-.66,1.13,1.13,0,0,1-.07-.55,1.53,1.53,0,0,1,.34-.55,2.36,2.36,0,0,0,.25-.36.43.43,0,0,1,0-.07.83.83,0,0,0,.14-.51l0,0c0-.07-.09-.2,0-.29l.1-.17a.51.51,0,0,0,.13-.46h0a1.47,1.47,0,0,1,.15-.17c.11-.12.14-.15,0-.32h0c.08-.07.1-.13.06-.17h0a1.54,1.54,0,0,1,.7-.68l0-.5v-.22a7.54,7.54,0,0,1,.76-1.28s0,0,0,0-.46-.53-.6-.62h0a1.05,1.05,0,0,1,.19-.34.73.73,0,0,0,.17-.34,2.05,2.05,0,0,0-.13-.53,3,3,0,0,1-.11-.32h0a1.43,1.43,0,0,1-.38-.1L67.4,33h0a1.08,1.08,0,0,1,.24-.64c0-.41-.08-.42-.22-.44a.62.62,0,0,1-.31-.14,1.72,1.72,0,0,1-.26-.33c-.13-.19-.26-.39-.38-.44a2.22,2.22,0,0,0-.67-.1c-.46,0-.85,0-1-.7a2.5,2.5,0,0,0-.47.35M55,29.11a.59.59,0,0,1-.16.15v.14h0a2.5,2.5,0,0,0-.74.26,2.92,2.92,0,0,1-.44.19,1.93,1.93,0,0,1-.43.07,1.53,1.53,0,0,0-.51.11h0a1.2,1.2,0,0,0-1.15.66v0h0a2.76,2.76,0,0,1-.44,0,1.92,1.92,0,0,1-.8-.12.82.82,0,0,0-.45.19.7.7,0,0,1-.3.17v.14h-.18v0h0a.12.12,0,0,0-.05.1v0h0a2.06,2.06,0,0,0-1.35.68h0a1.52,1.52,0,0,1-.65-.54h-.55a2.48,2.48,0,0,1-2-.55.85.85,0,0,1-.18-.32,1.17,1.17,0,0,0-.17-.31.49.49,0,0,0-.39.34.56.56,0,0,1-.26.29h0l-.32,0a2.7,2.7,0,0,0-.5.33,2.14,2.14,0,0,1-.44.3,3.29,3.29,0,0,1-1.34.22,5.35,5.35,0,0,1-1-.08.85.85,0,0,1-.24.09.58.58,0,0,0-.23.09.16.16,0,0,0,0,.1.21.21,0,0,1-.07.13.84.84,0,0,1-.31.08,1.51,1.51,0,0,0-.28,0,.76.76,0,0,0-.2.13,1,1,0,0,1-.27.15h0l-.82,0a3,3,0,0,0-.9.56l-.21.16v.07a3.11,3.11,0,0,1,1.26-.24,6.42,6.42,0,0,1,2.21.47h.59a2.49,2.49,0,0,1,1.24.6,1.34,1.34,0,0,1,.22.43,1.12,1.12,0,0,0,.25.47h0a1.62,1.62,0,0,1-.35.64c0,.26.3.42.56.57a1.34,1.34,0,0,1,.49.41h0v.36a1.42,1.42,0,0,1,.08.18,1.39,1.39,0,0,1,0,1.41.39.39,0,0,0,.08.4.36.36,0,0,1,.1.32,12.7,12.7,0,0,1-.43,1.32c-.07.19-.15.39-.22.59-.06.44-.11.87-.17,1.31l-.06.14c-.11.26-.29.69-.18.94a4.49,4.49,0,0,0,.44.74,5,5,0,0,1,.44.76,13,13,0,0,1,.7,2.33c.11.47.22.95.36,1.43l-.06.55c0,.16,0,.37,0,.57a2.45,2.45,0,0,1,0,.65,2.34,2.34,0,0,1-.12.41,2.13,2.13,0,0,0-.17.67l.08.06a2.61,2.61,0,0,0,.56.34h0l-.06,1.21a4.72,4.72,0,0,1,.11,2,2.32,2.32,0,0,1-.33.59,2.66,2.66,0,0,0-.25.41,3.88,3.88,0,0,0-.15.36,1.24,1.24,0,0,1-.5.77,1.05,1.05,0,0,0,.52.68,1.18,1.18,0,0,1,.48.54.89.89,0,0,1-.09.54,1.12,1.12,0,0,0-.09.73,3.46,3.46,0,0,0,.26.45c.15.23.29.46.27.55a.84.84,0,0,1-.16.29.59.59,0,0,0-.19.57,3.51,3.51,0,0,0,.26.6,3.55,3.55,0,0,1,.21.44A6.1,6.1,0,0,1,45.15,64c.06.29.11.56.19.82a8.2,8.2,0,0,1,.29,1.86,6.65,6.65,0,0,0,.36,2,1.41,1.41,0,0,0,.35.47,1.42,1.42,0,0,1,.24.3.7.7,0,0,1,0,.57.76.76,0,0,0,0,.52,1.2,1.2,0,0,0,.15.3,1,1,0,0,1,.14.24H47a.71.71,0,0,0-.12-.18.3.3,0,0,1-.11-.36l.08-.17a.85.85,0,0,0,.15-.73,2.69,2.69,0,0,0-.2-.43,1.4,1.4,0,0,1-.15-.3v-.54a4.6,4.6,0,0,1-.17-1,5.15,5.15,0,0,0-.07-.65l.24-1.62a1.21,1.21,0,0,1,0-.33,1.34,1.34,0,0,0,0-.4,1.5,1.5,0,0,0-.11-.22.62.62,0,0,1-.13-.51,2.16,2.16,0,0,1,.14-.33,2.47,2.47,0,0,0,.16-.39,1.17,1.17,0,0,0-.06-.43,1,1,0,0,1-.06-.39c.07-.18.14-.37.2-.55l.15-.4a1,1,0,0,0-.15-.5.67.67,0,0,1-.08-.18l-.06-.58,0-.08a4,4,0,0,1-.27-1.24,5,5,0,0,1,.35-1.4A1.46,1.46,0,0,1,46.8,57c.12-.36.19-.7.27-1a6.64,6.64,0,0,1,.31-1.14,4,4,0,0,0,.36-1.49c-.05-.14-.2-.23-.34-.33a.88.88,0,0,1-.31-.26,5.27,5.27,0,0,1,.23-1.68.85.85,0,0,0-.46-.67h0a1,1,0,0,1,.23-.47,1.09,1.09,0,0,0,.13-.17,1.06,1.06,0,0,0,.12-.34,1.22,1.22,0,0,1,.11-.34c.07-.12.16-.24.25-.38a2.26,2.26,0,0,0,.4-.7c.07-.27-.14-.49-.32-.68a1.53,1.53,0,0,1-.21-.27c-.2-.39-.36-.79-.52-1.17a3.05,3.05,0,0,0-.13-.32.81.81,0,0,1,0-.4.78.78,0,0,0-.06-.37,1.59,1.59,0,0,0-.17-.25,2.1,2.1,0,0,1-.19-.3.73.73,0,0,1,0-.43.33.33,0,0,0,0-.29h0l0,0h.06a.79.79,0,0,1,0-.37,1,1,0,0,0,0-.56c0-.08-.11-.13-.2-.19s-.13-.08-.15-.13A4.75,4.75,0,0,1,46.32,41a3.85,3.85,0,0,1,.34-.52A2.92,2.92,0,0,0,47,40,.73.73,0,0,0,47,39.7a.63.63,0,0,1,.11-.35v0c0-.16,0-.36-.06-.44a.38.38,0,0,0-.16,0h-.22a.29.29,0,0,1-.14,0h-.13a1.94,1.94,0,0,0,.08-1.15,2.5,2.5,0,0,1,0-1.12,1.64,1.64,0,0,1,.71-.86l.33,0h0a.39.39,0,0,0,.17-.12.5.5,0,0,1,.35-.15,1.14,1.14,0,0,1-.08-.32.81.81,0,0,0-.15-.43h0a.65.65,0,0,1,.28-.65l.13-.12a2.58,2.58,0,0,0-.29-.72h0c0-.36.07-.38.31-.45l.17,0a2.35,2.35,0,0,1,.78-.16,1.93,1.93,0,0,1,.76.18,4.72,4.72,0,0,0,.63.2l0-.12a.14.14,0,0,0,0-.09h0l.11,0h.06c.49,0,.74.41,1,.76a1.79,1.79,0,0,0,.61.64h0a.58.58,0,0,1-.06.23h0l-.29,0c0,.14.15.18.29.23l.06,0h0c0,.11,0,.27,0,.44,0,.46-.11,1.08,0,1.19h0a.54.54,0,0,1-.06.27h-.35v.05a.76.76,0,0,0,.06.47h0c0,.33.23.44.47.57a1,1,0,0,1,.47.38c.16.2,0,.75-.16,1.11a1.7,1.7,0,0,0-.07.21A2.49,2.49,0,0,0,53.11,41a.12.12,0,0,1-.06.18s-.07,0-.06.09.13.31.12.52v.12a3.37,3.37,0,0,1-.06.38c-.08.4-.2,1-.06,1.2a1.56,1.56,0,0,0,.26.23,1.24,1.24,0,0,1,.33.31,1.59,1.59,0,0,1,0,1l0,.13a4.68,4.68,0,0,0-.08.54,6.82,6.82,0,0,1-.15.82,1.17,1.17,0,0,0,0,.49,1.15,1.15,0,0,1,0,.24,1.67,1.67,0,0,1,0,.24,1.16,1.16,0,0,0-.07.52.45.45,0,0,0,.22.23.47.47,0,0,1,.19.18v.41c.08.22.15.48.23.76s.16.51.24.78a1.6,1.6,0,0,1-.31,1.26,2.86,2.86,0,0,0-.22.42l-.06,1H53.4l-.06.62c0,.2,0,.39-.05.6a1.37,1.37,0,0,1-.21.2,1.37,1.37,0,0,0-.21.2.73.73,0,0,0,0,.35.56.56,0,0,1-.06.38,2.07,2.07,0,0,0-.21.47,2.65,2.65,0,0,1-.38.75,1.59,1.59,0,0,0,.53,1.15l0,.06a.68.68,0,0,1,.13.27c0,.13.09.26.22.32h0a5.6,5.6,0,0,0-.18,2.53,3.56,3.56,0,0,1,.06.59l.07,0,.1,0h0l.12.32a1.86,1.86,0,0,1-.12,1.1.45.45,0,0,0,.1.44.61.61,0,0,1,.07.14c0,.16-.06.32-.14.45a.65.65,0,0,0-.09.15.64.64,0,0,0,.08.5.59.59,0,0,1,0,.08v.63c0,.1.17.64.18.68v0c0,.21,0,.21.17.29h0a1.41,1.41,0,0,1-.38.77c-.08.1-.15.19-.21.28a2.3,2.3,0,0,0,.18.72,1.25,1.25,0,0,0,.26.25.81.81,0,0,1,.21.2.3.3,0,0,1,.07.21s0,.09.16.24h0s0,0,0,0a3.86,3.86,0,0,0,.25,1.17l.09,0,.08,0h0v1.41h0l-.17.08v.64c0,.1-.08.2-.11.29a2.44,2.44,0,0,0-.19,1.64H54a1.46,1.46,0,0,1,.52-1.08l.13-.14a.61.61,0,0,0,.15-.38.86.86,0,0,1,.09-.34s.06,0,.13-.07l0,0,0-.63,0-.64a1.59,1.59,0,0,0,0-.4,1.25,1.25,0,0,1,.09-.6.19.19,0,0,1,.09,0s.07,0,.09,0a2.17,2.17,0,0,0,0-.69c0-.19,0-.29,0-.3a2.47,2.47,0,0,0,.29-.63l0-.46,0-.63a1.31,1.31,0,0,1,.16-.26c.15-.22.35-.5.25-.78a2.94,2.94,0,0,0-.52-.81,2.42,2.42,0,0,1-.24-.33l-.06-.58a.3.3,0,0,0-.13-.07c-.06,0-.09,0-.1-.07s0-.26.1-.5a1.93,1.93,0,0,0,.13-.54c0-.29,0-.62,0-1a7.23,7.23,0,0,0,0-.77,1.88,1.88,0,0,0-.07-.36.93.93,0,0,1-.05-.37.6.6,0,0,1,.21-.24.46.46,0,0,0,.2-.57A2,2,0,0,1,55.5,59c0-.09-.11-.36-.11-.36h0a.8.8,0,0,1,.08-.21.75.75,0,0,0,.09-.64.86.86,0,0,0-.13-.2c-.09-.09-.14-.15,0-.4l0-.13h0c.08-.09.35-.52.18-.8l-.18,0h0c.06,0,0-.09,0-.18a.32.32,0,0,1,0-.36.64.64,0,0,0,.07-.41.94.94,0,0,1,.05-.4,3.68,3.68,0,0,1,.34-.59l.13-.18,0-.25,0-.25a1,1,0,0,1,.16-.25,1.22,1.22,0,0,0,.25-.43,1.29,1.29,0,0,0,0-.39.69.69,0,0,1,.09-.47,3.76,3.76,0,0,0,.18-.35,1.42,1.42,0,0,1,.23-.42,2.13,2.13,0,0,1,.3-.3,1.55,1.55,0,0,0,.35-.38l.11-.77a8.25,8.25,0,0,0-.76-2.53h0v-.46l-.11-.28c-.1-.23-.19-.46-.13-.58A3.68,3.68,0,0,0,57,44.09a.27.27,0,0,0-.12-.15h0a.8.8,0,0,1,.39-.6.87.87,0,0,0,.37-1.12,2.41,2.41,0,0,1-.07-.43,2.63,2.63,0,0,0-.1-.56l-.12-.28a3.57,3.57,0,0,1-.24-.72,1.67,1.67,0,0,1,.17-.7c.13-.35.27-.7.13-.88l-.12-.14a1.93,1.93,0,0,1-.47-.68.7.7,0,0,1,.11-.47.7.7,0,0,0,.07-.71,3.49,3.49,0,0,1-.24-.91.55.55,0,0,1,.2-.2l.1-.08a.41.41,0,0,0,.09-.31.61.61,0,0,1,.08-.32,2.12,2.12,0,0,1,.34-.32,1.48,1.48,0,0,0,.43-.44v-.69h0l.22-.08.13-.18a1.21,1.21,0,0,1,.4-.41.88.88,0,0,1,.3-.07,1.15,1.15,0,0,0,.28-.07.38.38,0,0,0,.14-.09.42.42,0,0,1,.21-.13c-.06-.32-.37-.35-.67-.37a2,2,0,0,1-.38-.07c-.14,0-.16,0-.2-.08a.42.42,0,0,0-.15-.1h0c0-.27.07-.43.24-.5,0-.32-.32-.42-.62-.52a2.15,2.15,0,0,1-.38-.15l-.65-.59a4.47,4.47,0,0,0-.61-.21c-.39-.11-.61-.16-.8-.78-.37,0-.43.06-.53.16" transform="translate(-35.86 -28.23)"/><path class="cls-1" d="M53.8,75.22l-.71-.59a3.08,3.08,0,0,1,.22-2l.06-.16v-.5l.18-.29v-.79h0a3.57,3.57,0,0,1-.41-1.41.94.94,0,0,1-.14-.34l0,0a1.5,1.5,0,0,1-.44-.46s-.48-1-.16-1.47a2.7,2.7,0,0,1,.25-.34l.12-.16a1,1,0,0,1-.07-.4l-.12-.47s0,0,0,0l-.07-.31V65a1.29,1.29,0,0,1-.07-1,1.91,1.91,0,0,1,.13-.25,1.1,1.1,0,0,1-.07-.93,1.42,1.42,0,0,0,.11-.59L52.48,62l-.22-.28c0-.17,0-.39,0-.45a6.36,6.36,0,0,1,.07-2.55,1.65,1.65,0,0,1-.11-.26v0l0,0a2.27,2.27,0,0,1-.71-1.66l.17-.46a2.1,2.1,0,0,0,.25-.52,2.58,2.58,0,0,1,.23-.54v0a1.34,1.34,0,0,1,.13-.73,1.42,1.42,0,0,1,.36-.4l.09-1,.12-.11.05-.9,0-.2a3.4,3.4,0,0,1,.27-.54c.14-.23.3-.52.26-.67s-.17-.54-.25-.8-.15-.52-.22-.73l0-.23v-.08a1,1,0,0,1-.38-.52,1.77,1.77,0,0,1,.06-.91.44.44,0,0,0,0-.1v-.07a1.85,1.85,0,0,1,0-.82,4.54,4.54,0,0,0,.13-.72c0-.19.06-.39.1-.59l0-.15a2.88,2.88,0,0,0,.09-.48l-.12-.09a2.74,2.74,0,0,1-.4-.37c-.32-.42-.23-1-.08-1.78,0-.1,0-.23,0-.27s0-.07,0-.11v-.16l-.1-.14a.83.83,0,0,1,0-.49,3,3,0,0,1-.13-1.94l.08-.25a4.15,4.15,0,0,0,.17-.53l-.12-.07a1.42,1.42,0,0,1-.85-1,1.7,1.7,0,0,1-.08-.72v-.06l.33-.33a4.59,4.59,0,0,1,0-1.15,1,1,0,0,1-.28-.45l.17-.27c-.13-.15-.24-.31-.34-.45-.22-.32-.31-.43-.43-.45l-.34.21a5.56,5.56,0,0,1-.74-.23,1.32,1.32,0,0,0-.49-.13,1.55,1.55,0,0,0-.39.06c0,.11.08.24.13.4l-.19.71-.16.14a2.63,2.63,0,0,1,.1.43l0,.15,0,0-.55,1.06.1-.07a1.23,1.23,0,0,1-.41.29l-.2.06-.2,0a1.28,1.28,0,0,0-.27.4,1.9,1.9,0,0,0,0,.79,5.2,5.2,0,0,1,.05.59l.09,0,.26.19a1.3,1.3,0,0,1,.23.95v.05l-.16.43a.28.28,0,0,0,.06-.12.28.28,0,0,0,0,.09,1.62,1.62,0,0,1-.14.52,3.82,3.82,0,0,1-.37.58,4.37,4.37,0,0,0-.26.38c0,.12-.07.42-.1.65a1,1,0,0,1,.28.38,1.68,1.68,0,0,1,.06,1,1,1,0,0,0,0,.15v0l-.08.1a1.12,1.12,0,0,1,0,.49v0l.09.13a2.62,2.62,0,0,1,.24.37,1.5,1.5,0,0,1,.13.69v.12l.13.31c.15.37.31.75.48,1.11l.11.11a1.47,1.47,0,0,1,.49,1.37,3,3,0,0,1-.51.94l-.21.3,0,.15a1.64,1.64,0,0,1-.21.56l-.07.11a1.32,1.32,0,0,1,.3.81l-.19.5a.61.61,0,0,0,.11-.17,7.28,7.28,0,0,0-.16,1,1.45,1.45,0,0,1,.6.66,3.22,3.22,0,0,1-.36,2,6.65,6.65,0,0,0-.28,1,8.07,8.07,0,0,1-.29,1.12l-.07.2a4.29,4.29,0,0,0-.3,1.17,3.3,3.3,0,0,0,.23,1l0,.07,0,.16c0,.15,0,.31,0,.47l0,0a1.64,1.64,0,0,1,.23.94l0,.15-.3.8,0,.09a1.57,1.57,0,0,1,.06.79,2.79,2.79,0,0,1-.21.53s0,.09,0,.13l0,0a1.57,1.57,0,0,1,.17.39,1.67,1.67,0,0,1,0,.66c0,.06,0,.11,0,.16v.2c-.07.51-.14,1-.22,1.52a4.51,4.51,0,0,1,.06.6,4.38,4.38,0,0,0,.14.87l0,.21v.38l.06.11a4.13,4.13,0,0,1,.26.56,1.5,1.5,0,0,1-.13,1.17,1.19,1.19,0,0,1,.14.32l-.7.9h-.23l-.68-.47-.07-.11a1.87,1.87,0,0,1-.23-.47,1.45,1.45,0,0,1,0-1v0l-.08-.09a2.14,2.14,0,0,1-.49-.69,7.32,7.32,0,0,1-.41-2.25,8.07,8.07,0,0,0-.26-1.7,8.86,8.86,0,0,1-.21-.89,5.85,5.85,0,0,0-.24-1c0-.11-.11-.23-.17-.36a3.84,3.84,0,0,1-.32-.74A1.23,1.23,0,0,1,44,61l-.07-.11a3.11,3.11,0,0,1-.33-.61,1.81,1.81,0,0,1,.1-1.22l0-.09-.17-.14a1.74,1.74,0,0,1-.81-1.18l.37-.72s.13-.26.17-.37a3.57,3.57,0,0,1,.17-.44,4.19,4.19,0,0,1,.31-.5,2.54,2.54,0,0,0,.25-.42,4.68,4.68,0,0,0-.14-1.55l0-.24c0-.26,0-.51,0-.77l-.25-.17-.08-.06-.3-.61a2.71,2.71,0,0,1,.21-.9c0-.12.08-.22.1-.29a4.37,4.37,0,0,0,0-.45,3.88,3.88,0,0,1,0-.68v0l0-.4c-.13-.45-.23-.9-.33-1.34a12.39,12.39,0,0,0-.65-2.19,5.08,5.08,0,0,0-.38-.64,5,5,0,0,1-.5-.86,2,2,0,0,1,.17-1.51l0,0c.06-.4.11-.81.17-1.22l0-.14.22-.61q.21-.54.36-1.05a1,1,0,0,1-.1-1c.16-.4.16-.4,0-.86l-.07-.19-.06-.27v-.07L42.19,37a1.58,1.58,0,0,1-.89-1.08l.24-.67,0,0,0,0c0-.11-.08-.22-.12-.31a1.31,1.31,0,0,0-.07-.19,1.93,1.93,0,0,0-.77-.34h-.51l-.27-.06a5.64,5.64,0,0,0-1.93-.41,2.32,2.32,0,0,0-1,.18l-1-.66v-.09l.29-.58.19-.15a3.75,3.75,0,0,1,1.12-.68l.19,0,.68,0,0,0a1.31,1.31,0,0,1,.38-.22,1.36,1.36,0,0,1,.34-.08.77.77,0,0,1,.18-.18,1.34,1.34,0,0,1,.48-.21l.07,0-.08.05.57-.13a4.7,4.7,0,0,0,.81.07,2.69,2.69,0,0,0,1-.15,1.54,1.54,0,0,0,.31-.21,2.76,2.76,0,0,1,.67-.43l.19-.06h.08a1.17,1.17,0,0,1,.9-.66l.65.23a1.43,1.43,0,0,1,.3.52.67.67,0,0,0,.06.12c.21.22.56.3,1.42.3h.53l.6.29,0,0a2.93,2.93,0,0,1,1.19-.45l.23-.3,0,0a1.4,1.4,0,0,1,.84-.35l.45.11-.07,0a1.78,1.78,0,0,0,.49,0h0a1.77,1.77,0,0,1,1.41-.7,2.38,2.38,0,0,1,.59-.12,1.68,1.68,0,0,0,.29,0,1.55,1.55,0,0,0,.33-.15,4.4,4.4,0,0,1,.6-.24l.06-.11,0,0a1.27,1.27,0,0,1,1.06-.39l.69.51a1.36,1.36,0,0,0,.09.24l.21.06a5.37,5.37,0,0,1,.71.24l.19.13L58,30l.2.07a1.35,1.35,0,0,1,1.11,1.16l-.05.08a1.23,1.23,0,0,1,1.22,1v0h.09a1.49,1.49,0,0,0,.17-.12,1.75,1.75,0,0,1,1.12-.46l.06,0,.14-.05h0a2.66,2.66,0,0,0,.28-.67l.69-.62a1,1,0,0,0,.83-.36,3.72,3.72,0,0,1,.6-.45l1.07.5a.41.41,0,0,0,0,.1l.25,0a2.75,2.75,0,0,1,.92.15,1.7,1.7,0,0,1,.72.71l.11.16a1,1,0,0,1,.8,1.15l-.14.3.53.36a1.17,1.17,0,0,0,.08.25A2.25,2.25,0,0,1,69,34a1,1,0,0,1-.14.53,1.19,1.19,0,0,1,.4.76.76.76,0,0,1-.19.54,8.11,8.11,0,0,0-.58.93l0,.54-.4.71a1,1,0,0,0-.29.22v0a.83.83,0,0,1-.24.74,1.21,1.21,0,0,1-.19.51,1.44,1.44,0,0,1-.21,1l0,.06a2.8,2.8,0,0,1-.33.47c-.06.08-.15.19-.19.26s0,.14.06.21a3.54,3.54,0,0,1,.13.85l-.1.07.1.79,0,.34a.2.2,0,0,1,0,.08,1.36,1.36,0,0,1,.61.95l-.24.62.06-.07a.77.77,0,0,0-.07.26.31.31,0,0,0,0-.11l0,.59a2.1,2.1,0,0,0-.23,1.7A3.51,3.51,0,0,0,67,48c.49.65,1.23,1.63.81,2.68a.14.14,0,0,1,0,.06,1,1,0,0,1,0,.75,10.66,10.66,0,0,1-.59,1.37c-.18.38-.36.75-.5,1.13l.09.13.07.54,0,.11a1.53,1.53,0,0,1,.35.55,2.7,2.7,0,0,1-.59,2.53l-.09.14v.11h0a.63.63,0,0,1,.07.22,1,1,0,0,1,.16.22A2.61,2.61,0,0,1,67,59.67v.16a1.29,1.29,0,0,1-.25,1l0,.08a.65.65,0,0,1,0,.21.55.55,0,0,1,0,.18,1.35,1.35,0,0,1,.06.34v0l-.08.08a1.81,1.81,0,0,1,0,.57c0,.09,0,.22,0,.27l0,.05a3.05,3.05,0,0,1,.19.83,2,2,0,0,1-.53,1.19,1.72,1.72,0,0,0-.15.2,3.76,3.76,0,0,0-.25.58,4.38,4.38,0,0,1-.26.65,5,5,0,0,1-.31.54,3.92,3.92,0,0,0-.26.47,2.37,2.37,0,0,0,.14.8l0,.55a4.25,4.25,0,0,1-.31.47l-.14.18-.61.34h-.12l-.71-.84a2.15,2.15,0,0,0-.06-.51,3.36,3.36,0,0,1-.09-.7,1.16,1.16,0,0,1-.21-.6,4.82,4.82,0,0,1,.18-1.35v-.34l0-.21,0-.1a1.74,1.74,0,0,0,.09-.43,4.25,4.25,0,0,0-.21-.49,3.56,3.56,0,0,1-.41-1.72l.48-.67c.2-.08.25-.09.22-.84l.15-.45a1.38,1.38,0,0,0-.13-.29,1.57,1.57,0,0,1-.21-1.28l.07-.14.47-.78v-.88l0-.21a1.67,1.67,0,0,0,.08-.75l.05,0a4.13,4.13,0,0,1,0-1.86v-.54l.06-.28a.3.3,0,0,1,0-.08L64,52.93l0-.21,0-1.15c-.05-.11-.12-.23-.19-.36a2.49,2.49,0,0,1-.38-1.83.88.88,0,0,1,0-.17l.17-.52a.71.71,0,0,0-.09.13,9.27,9.27,0,0,0,.28-1.17A1.8,1.8,0,0,1,63.3,47a1.86,1.86,0,0,0-.1-.25l-.1-.1a1.65,1.65,0,0,1-.39-.49l-.07-.31v-.34h0a1.45,1.45,0,0,1-.18-1.24.72.72,0,0,1,.16-.24l0-.46,0-.28a1.36,1.36,0,0,1,.09-.23,1.42,1.42,0,0,0,.08-.18l-.15-.15a1.73,1.73,0,0,1-.58-1l.36-.73a4.06,4.06,0,0,0,.66-.69,1.4,1.4,0,0,1-.26-.69L63,39c0,.06-.07.11-.08.11a4.65,4.65,0,0,0,.23-.58l0-.08a1.8,1.8,0,0,1-.12-.78,5.11,5.11,0,0,1,.13-.7s0-.13,0-.18a1.37,1.37,0,0,1,0-.54,1.05,1.05,0,0,1,0-.19,1,1,0,0,1-.19-.38,4.19,4.19,0,0,1-.86-.31,2.89,2.89,0,0,1-.93.18l-.39-.12,0,0-.49-.17-.24-.12A1.45,1.45,0,0,1,59.8,35v0h-.46l-.43,0a1.57,1.57,0,0,1-.59-.1l-.26.21-.15.13a1.06,1.06,0,0,1-.31.78l0,0a1.89,1.89,0,0,0,.1.31,1.39,1.39,0,0,1-.06,1.36l0,0,.25.29.16.18a1.56,1.56,0,0,1,0,1.59c0,.11-.1.28-.12.36a3.56,3.56,0,0,0,.18.52c.05.1.09.2.13.3a2.92,2.92,0,0,1,.15.75,1.42,1.42,0,0,0,0,.28,1.59,1.59,0,0,1-.6,1.9l0,0a4.26,4.26,0,0,1-.33,2.2l.07.16c0,.11.09.23.12.33l0,.22v.31A7.1,7.1,0,0,1,58.37,50h0l-.11.77-.08.23a2.08,2.08,0,0,1-.5.58,2.49,2.49,0,0,0-.23.22,1.47,1.47,0,0,0-.12.25,3.19,3.19,0,0,1-.21.41v.09a1.64,1.64,0,0,1-.06.63,1.84,1.84,0,0,1-.38.68l0,0,0,.33-.11.31a1.86,1.86,0,0,1-.14.2c-.08.13-.23.35-.27.44s0,.07,0,.12a1.74,1.74,0,0,1-.06.56l.11.08a1.38,1.38,0,0,1-.07,1.42,1.45,1.45,0,0,1,.12.22,1.36,1.36,0,0,1-.06,1.14.85.85,0,0,1,0,.56,1.19,1.19,0,0,0,.06.76,1.16,1.16,0,0,1-.34,1.27,3.06,3.06,0,0,1,.08.47c0,.25,0,.54,0,.84a6.56,6.56,0,0,0,0,.86,2.23,2.23,0,0,1-.16.77l0,.06.1.31,0,.4.11.13a3.38,3.38,0,0,1,.64,1,1.56,1.56,0,0,1-.35,1.42v0l0,.87,0,.25a3.51,3.51,0,0,1-.25.6v0a2.09,2.09,0,0,1,0,1.07.8.8,0,0,1-.21.29v.11a2.37,2.37,0,0,1,0,.52l0,1.19-.17.43a.38.38,0,0,1-.11.11,1.3,1.3,0,0,1-.32.73l-.14.15c-.25.27-.31.34-.32.59l-.72.72Z" transform="translate(-35.86 -28.23)"/></g></svg>