<?xml version="1.0" encoding="utf-8"?>
<!-- Generator: Adobe Illustrator 25.4.1, SVG Export Plug-In . SVG Version: 6.00 Build 0)  -->
<svg version="1.1" id="Layer_1" xmlns="http://www.w3.org/2000/svg" xmlns:xlink="http://www.w3.org/1999/xlink" x="0px" y="0px"
	 viewBox="0 0 468.85 121.95" style="enable-background:new 0 0 468.85 121.95;" xml:space="preserve">
<style type="text/css">
	.st0{fill:#FFFFFF;}
	.st1{opacity:0.65;fill:#FFFFFF;}
	.st2{opacity:0.45;fill:#FFFFFF;}
</style>
<polygon class="st0" points="193.8,76.54 177.45,27.65 157.19,27.65 182.16,96.02 203.47,96.02 228.31,27.65 210.01,27.65 "/>
<path class="st0" d="M291.93,53.53c-9.93-1.44-13.2-3.14-13.2-7.45c0-4.19,3.53-7.06,9.67-7.06c3.27,0,5.69,0.66,7.42,2.01
	c1.74,1.36,2.78,3.41,3.3,6.23h17.38c-1.7-15.69-13.07-21.17-28.23-21.17c-13.99,0-27.06,7.06-27.06,21.3
	c0,13.33,7.06,18.56,25.22,21.31c9.8,1.44,13.86,3.4,13.86,8.1c0,4.71-3.4,7.45-10.72,7.45c-4.11,0-6.93-0.88-8.81-2.53
	c-1.88-1.65-2.83-4.07-3.22-7.14h-17.65c0.66,14.77,11.37,22.88,29.8,22.88c18.04,0,28.76-7.71,28.76-22.48
	C318.47,60.33,309.06,56.02,291.93,53.53z"/>
<path class="st0" d="M347.71,74.21l0.01-33.11h14.34V27.67h-14.34l-0.01-15.36h-18.78l0.01,15.36h-8.74V41.1h8.74l-0.01,34.8
	c0,14.22,7.69,21.52,22.04,21.52c5.08,0,8.87-0.91,11.47-1.82V80.99c-2.22,0.91-4.3,1.3-7.17,1.3
	C350.44,82.29,347.71,79.69,347.71,74.21z"/>
<path class="st0" d="M420.44,37.8c-2.96-5.42-10.47-11.71-22.79-11.71c-18.97,0-33.74,14.3-33.74,35.6
	c0,19.08,12.07,35.74,33.74,35.74c9.48,0,18.47-3.72,22.79-11.6v10.19h17.36V27.66h-17.36V37.8z M420.84,62.95
	c-0.29,3.42-1.28,6.7-3.27,9.7c-2.98,4.65-8.09,8.47-16.47,8.47c-14.19,0-19.58-12.03-19.58-19v-0.14c0-8.61,5.96-19.54,19.45-19.54
	c9.94,0,15.33,5.33,17.88,10.52C420.41,56.11,421.12,59.53,420.84,62.95z"/>
<rect x="234.93" y="27.66" class="st0" width="18.74" height="68.36"/>
<path class="st0" d="M243.16,0.05c-4.92,0.49-8.89,4.46-9.38,9.38c-0.66,6.64,4.88,12.18,11.53,11.53c4.92-0.49,8.9-4.47,9.38-9.38
	C255.34,4.94,249.81-0.6,243.16,0.05z"/>
<g>
	<path class="st0" d="M69.72,121.95L39.05,68.29h61.34L69.72,121.95z"/>
	<path class="st1" d="M100.38,68.3H39.04L69.7,14.64L100.38,68.3z"/>
	<path class="st0" d="M78.07,0h61.34l-39.04,68.3L69.71,14.64L78.07,0z"/>
	<path class="st2" d="M61.34,0l8.36,14.64L39.04,68.3L0,0H61.34z"/>
</g>
<g>
	<path class="st0" d="M450.75,86.59h-3.27v-1.47h8.36v1.47h-3.23v9.26h-1.87V86.59z M457.75,85.13h2.57l3,7.53l2.93-7.53h2.6v10.73
		h-1.87v-8.36l-3.43,8.36h-0.63l-3.46-8.36v8.36h-1.7V85.13z"/>
</g>
</svg>
