<?xml version="1.0" encoding="UTF-8"?><svg id="Layer_1" xmlns="http://www.w3.org/2000/svg" viewBox="0 0 576 180.66"><defs><style>.cls-1{fill:#fff;}</style></defs><polygon class="cls-1" points="300.01 45.62 282.72 45.62 272.97 61.43 290.25 61.43 300.01 45.62"/><g><path class="cls-1" d="M249.58,180.66c-13.78-9.69-30.56-13.96-45.81-13.34-15.41,.62-22.33,12.13-22.33,12.13-6.97-12.13-20.72-19.57-41.96-19.39-34.31,.41-68.37,16.26-95.34,16.26S-.61,160.05,.02,131.18C1.1,80.55,43.87,34.93,75.84,14.38,94.22,2.58,109.61-.92,119.68,.2c7.34,.82,16.18,9.3,10.61,21.79-8.17,18.32-19.48,16.78-19.07,8.04,.23-5.68,4.02-9.26,6.85-11.22,1.82-1.25,5-1.62,6.67-1.65,1.61-1.37,2.85-11.38-10.32-8.07-13.17,3.31-29.01,16.24-44.12,32.91-15.11,16.67-38.62,48.29-44.43,81.42-2.7,15.39-.89,43.4,35.53,43.08,30.87-.27,76.45-20.61,118.31-20.25,16.25,.14,30.39,4.51,41.42,11.32,10.86,6.71,23.86,16.44,28.46,23.08m9.89-91.79h6.34s-31.72,45.86-49.65,43.79c-10.01-1.16-7.05-13.51-7.05-13.51,0,0-14.08,16.46-26.94,13.17-11.71-3-4.17-22.47-4.17-22.47-1.33,.54-26.66,29.12-44.45,22.27-18.62-7.17-8.98-31.1-5.42-38.28,2.99-6.06,6.31-11.97,6.31-11.97,0,0-2.86,.82-4.63,1.23-1.77,.41-4.47,.93-4.47,.93,0,0-8.81,14.33-14.19,21.47-5.38,7.15-28.26,31.73-41.74,26.83-13.48-4.9-10.17-23.75-2.59-38.75,12.28-24.31,41.42-54.19,58.97-49.71,17.73,4.52,3.07,33.3,3.07,33.3,0,0,3.53,.45,11.98-5.31,12.19-8.31,28.22-30.67,45.63-28.06,8.17,1.23,15.78,9.62,5.38,25.54-3.34,5.11-8.92,9.69-13.21,5.18-2.66-2.79-.35-7.93,2.45-11.44,3.95-4.97,9.4-4.29,9.4-4.29,0,0,2.86-6.6-4.43-6.47-5.92,.11-20.9,13.91-29.35,27.86-7.76,12.8-19.5,34.61-7.7,39.36,10.83,4.36,31.4-20.09,40.93-32.89,9.53-12.81,31.22-41.86,49.44-43.04,6.26-.41,10.01,5.31,10.01,5.31l2.11-3.34h18.18s-34.29,57.3-36.98,61.63c-2.11,3.4-4.9,11.03,2.86,6.74,7.77-4.29,23.9-25.06,23.9-25.06m-141.22-5.81c-.31-.11-4.9-1.43-9.38-4.29-4.47-2.86-6.53-7.1-6.69-7.4-.16-.29-.34-.06-.52,.18-.18,.25-1.14,1.48-7.63,11.01-6.5,9.53-16.12,29.06-7.09,32.39,5.77,2.14,15.46-8,20.7-14.71,4.87-6.22,10.66-15.8,10.91-16.37,.25-.57,.02-.7-.3-.82m7.19-30.45c-4.76-3.61-16.92,4.84-16.98,13.46-.07,8.85,10.98,11.37,12.4,11.43,0,0,1.25,.34,1.74-.71,.31-.65,1.81-3.42,3.49-7.81,1.67-4.39,3.8-13-.65-16.37m92.75,47.7c7.35-10.08,27.63-45.4,27.63-45.4,0,0-.34-2.49-2.7-2.59-2.81-.12-7.46,.82-16.78,12.46-9.33,11.64-16.5,20.93-21.76,30.55-5.75,10.52-8.28,17.95-4.97,19.95,.93,.57,2.34,.64,3.47,.36,2.17-.54,4.98-2.69,8.85-7.17,1.81-2.09,3.86-4.88,6.26-8.17M555.16,17.22c-12.78,8.22-30.49,15.66-47.49,14.03-4.3,4.46-8.91,9.61-13.54,15.24,29.51,5.82,55.32-12.46,69.06-28.04,8.57-9.71,12.81-18.38,12.81-18.38,0,0-8.18,9.02-20.84,17.16m-50.58,134.04c-2.45,3.93-5.22,11.42,2.86,6.74,9.84-5.7,23.86-26.97,23.86-26.97h6.33s-8.35,13.22-19.24,25.29c-9.98,11.06-22.14,21.1-30.71,20.11-10.01-1.16-6.88-14.3-6.88-14.3,0,0-14.37,15.25-24.24,14.17-13.38-1.48-9.31-18.03-9.31-18.03,0,0-15.12,18.61-25.42,18.03-16.18-.93-12.12-20.66-7.63-34.46,2.42-7.4,4.64-13.23,4.64-13.23,0,0-1.61,.43-5.05,.93-1.8,.27-5.08,.44-5.08,.44,0,0-6.72,11.89-12.1,19.04-5.38,7.15-28.27,31.75-41.75,26.83-12.44-4.54-8.35-23.62-1.09-38.77,10.58-22.09,40.31-53.85,57.48-49.69,17.79,4.3,.42,36.78,.42,36.78,0,0,.02,.12,.19,.19,.36,.14,1.27,.22,3.43-.18,3.42-.65,6.51-1.95,6.51-1.95,0,0,17.87-37.46,37.62-61.98,19.75-24.51,59.15-66.73,74.63-56.52,3.79,2.5,2.06,11.15-3.02,21.65-2.25,.71-4.59,1.34-6.98,1.84,3.41-6.19,5.66-11.41,6.33-15.04,2.31-12.67-27.24,14.03-48.35,42.76-21.11,28.74-33.78,54.75-33.78,54.75,0,0,4.26-2.41,10.9-7.76,6.93-5.59,16.46-14.35,26.83-25.07,6.97-7.19,15.16-16.25,22.83-26.36,2.29-.12,4.53-.35,6.71-.69-8.55,11.52-17.55,22.04-25.18,29.78-8.4,8.52-17.53,17.7-25.47,24.38-12.6,10.61-22.34,16.62-22.34,16.62,0,0-18.51,37.23-8.44,39.63,5.9,1.41,17.57-16.57,17.57-16.57,0,0,15.21-23.24,24.38-33.69,12.51-14.25,23.29-22.47,34.05-22.66,6.28-.11,9.98,6.59,9.98,6.59l2.95-4.57h18.18s-33.91,57.6-36.61,61.93m-102.21-22.67c-.31-.11-4.26-1.91-8.35-5.33-4.08-3.4-6.14-7.31-6.3-7.61-.16-.29-.34-.06-.52,.18-.18,.25-.92,.9-7.41,10.43-6.49,9.53-16.42,29.19-7.4,32.53,5.77,2.13,15.38-7.96,20.62-14.67,4.86-6.22,9.42-14.14,9.67-14.71,.25-.57,.02-.7-.3-.82m9.18-16.08c1.68-4.39,3.8-13-.65-16.37-4.77-3.61-16.92,4.84-16.99,13.47-.06,8.85,8.57,12.84,10.65,13.4,1.18,.32,1.59,.28,2.16-.68,.37-.62,3.14-5.42,4.82-9.81m104.38-12.16c.37-.65,.54-1.23,.54-1.23,0,0-.34-2.49-2.7-2.59-2.81-.13-6.65,.41-16.68,11.53-9.99,11.08-16.07,20.7-21.34,30.33-5.75,10.52-8.06,18.35-4.76,20.36,.93,.57,2.34,.63,3.47,.36,2.25-.55,4.78-2.63,8.65-7.1,1.81-2.09,3.82-5.06,6.22-8.36,6.61-9.05,23.29-37.57,26.61-43.31m39.23-83.13c-12.78,8.22-30.49,15.66-47.49,14.03-4.3,4.46-8.91,9.61-13.54,15.24,29.51,5.82,55.32-12.46,69.06-28.04,8.57-9.71,12.81-18.38,12.81-18.38,0,0-8.18,9.02-20.84,17.16m-82.91,21.4c-13.96-7.15-24.15-15.88-34.77-21.33-10.13-5.2-16.68-7.35-24.85-6.27-1.35,.18-3.38,.84-3.38,.84,0,0,4.23,14.39-12.53,38.59-16.98,24.52-32.39,24.39-36.77,17.62-4.59-7.1,1.32-21.61,11.22-34.5,10.35-13.49,28.55-24.7,28.55-24.7,0,0-5.81-3.54-20.07,4.54-13.88,7.87-37.86,26.6-60.02,58.2-22.15,31.59-26.58,48.99-29.78,62.68-3.2,13.69-.27,28.33,14.91,28.33s32.83-23.15,37.8-31.21c9.25-14.99,15.29-37.98,2.69-34.81-6.21,1.56-11.24,8.45-14.4,15.06-3.25,6.8-4.57,13.3-4.57,13.3,0,0-5.24,1.87-12.29,7.15-7.05,5.28-11.64,10.31-11.64,10.31,0,0,.04-10.93,8.75-28.63,8.71-17.7,24.72-25.81,33.78-26.56,8.17-.67,18.79,6.27,9.81,31.87-8.99,25.61-35.55,56.66-63.47,57.07-25.75,.38-42.64-32.51-6.81-89.89C324.03,22.81,370.61,3.33,385.73,1.15c15.12-2.18,20.02,4.49,20.02,4.49,0,0,12.67-5.86,28.74-4.76,18.46,1.25,32.75,14.31,51.57,23.47-4.92,4.77-9.6,9.66-13.8,14.27m-68.75-24.87s-10.8,4.3-23.35,18.14c-12.6,13.89-19.86,29.43-14.45,33.55,2.07,1.58,6.86,1.84,15.57-5.99,6.8-6.11,13.71-14.1,18.4-25.54,5.62-13.71,3.82-19.99,3.82-20.15"/><path class="cls-1" d="M529.11,163.95c1.03,.59,1.85,1.38,2.44,2.39,.59,1.01,.89,2.11,.89,3.29s-.3,2.31-.89,3.31c-.59,1-1.41,1.79-2.44,2.38-1.03,.59-2.19,.88-3.45,.88s-2.42-.29-3.45-.88c-1.03-.59-1.85-1.38-2.44-2.38-.59-1-.89-2.11-.89-3.31s.3-2.28,.89-3.29c.59-1.01,1.41-1.81,2.44-2.39,1.03-.59,2.19-.88,3.45-.88s2.42,.29,3.45,.88m-.67,10.29c.81-.46,1.44-1.08,1.89-1.89,.45-.8,.67-1.71,.67-2.72s-.22-1.89-.67-2.69c-.45-.81-1.08-1.43-1.9-1.89-.82-.46-1.74-.69-2.77-.69s-1.95,.23-2.76,.69c-.82,.45-1.46,1.08-1.9,1.89-.45,.79-.67,1.7-.67,2.69s.22,1.92,.67,2.72c.45,.81,1.08,1.43,1.89,1.89s1.74,.69,2.78,.69,1.97-.23,2.78-.69m-.23-4.71c-.19,.31-.46,.55-.82,.71l1.56,2.31h-1.73l-1.39-2.17h-1.16v2.17h-1.51v-5.94h3.44c.58,0,1.04,.18,1.38,.54,.35,.36,.52,.8,.52,1.33,0,.38-.1,.74-.29,1.05m-3.54-.47h1.64c.19,0,.35-.05,.46-.15,.11-.1,.17-.25,.17-.42s-.05-.31-.17-.42c-.11-.11-.27-.15-.46-.15h-1.64v1.15Z"/></g></svg>