<svg width="77" height="30" viewBox="0 0 77 30" fill="none" xmlns="http://www.w3.org/2000/svg">
<path d="M40.4313 9.80066C45.813 11.6897 51.7951 12.6228 57.444 11.3785C59.1566 11.0006 60.9356 10.3783 62.3141 9.26696C63.2258 8.53357 64.0488 7.46652 63.7595 6.24408C63.6037 5.57713 62.0248 5.97723 62.1805 6.66633C62.3806 7.53297 61.7801 8.26672 61.1353 8.75541C59.9121 9.68885 58.5779 10.1332 57.11 10.489C51.439 11.9115 46.2573 10.489 41.3872 8.77756C40.7646 8.57751 39.4968 9.46665 40.4309 9.79995" fill="white"/>
<path d="M59.933 22.5808C57.2419 23.6474 56.2178 19.4914 55.8634 17.691C55.3518 14.9571 55.3518 10.7564 55.285 7.97827C55.285 7.68927 53.9508 7.91147 53.9729 8.3355C54.0619 12.1579 53.5503 25.694 60.3999 22.9601C60.4888 22.9158 61.0004 22.6933 60.7778 22.5379C60.5992 22.3593 60.1551 22.4936 59.9326 22.5822" fill="white"/>
<path d="M41.0316 15.2239C40.6312 16.5574 39.8528 18.5801 41.2985 19.5803C42.9664 20.7359 44.6564 18.4247 45.079 17.0686C44.6786 17.1354 44.2785 17.2019 43.878 17.2908C44.2353 18.2911 44.8343 19.4024 45.7685 19.9579C46.1911 20.2022 47.2585 19.6246 46.7026 19.3149C45.9021 18.848 45.3684 17.8481 45.0794 16.9811C44.9008 16.4699 44.012 16.8025 43.8784 17.2033C43.6795 17.8978 43.2671 18.5121 42.6995 18.9591C42.2548 19.2924 41.8543 18.6019 41.7432 18.2257C41.4542 17.2476 41.9658 16.0698 42.2548 15.1364C42.3884 14.603 41.1874 14.7363 41.0316 15.2253" fill="white"/>
<path d="M61.6925 15.3138C61.0252 16.3805 59.9357 19.0033 61.7147 19.6477C62.4263 19.9146 63.2507 19.4255 63.7384 18.9586C64.4357 18.297 64.9426 17.4603 65.2062 16.5359C64.849 16.6691 64.4946 16.8027 64.1388 16.9138C64.4057 17.0925 64.4725 17.714 64.5614 18.003C64.6399 18.3479 64.8365 18.6545 65.1173 18.8697C66.2293 19.5588 67.6536 19.114 68.7421 18.6253C69.4983 18.292 68.831 17.6919 68.2305 17.9584C67.43 18.3156 66.14 18.78 65.7842 17.6915C65.6285 17.2025 65.562 16.5802 65.0948 16.269C65.0008 16.2186 64.8974 16.1883 64.7911 16.1801C64.6848 16.172 64.5779 16.1862 64.4774 16.2218C64.3769 16.2574 64.2849 16.3136 64.2074 16.3868C64.1299 16.46 64.0686 16.5487 64.0274 16.647C63.9163 17.0471 62.7821 19.3362 62.2259 18.7361C61.4921 17.9359 62.4045 16.1801 62.8485 15.4467C63.16 14.8912 61.959 14.8912 61.6922 15.3135" fill="white"/>
<path d="M39.8753 17.0472C39.9196 15.7358 39.5181 14.4037 38.1406 13.98C36.8953 13.6021 35.4275 14.3373 34.6491 15.2914C33.8485 16.2695 33.1369 18.0696 34.1154 19.1588C34.6269 19.7143 35.5832 19.7368 36.228 19.516C37.1622 19.2049 37.7641 18.4047 38.4964 17.7824C38.1392 17.8267 37.807 17.8714 37.4512 17.9157C37.7627 18.3157 38.007 18.7601 38.3185 19.1602C38.5854 19.4935 39.7417 19.0934 39.4306 18.6712C39.1191 18.2711 38.8747 17.8267 38.5632 17.4266C38.3407 17.1376 37.7416 17.3598 37.5401 17.5598C37.0954 17.9378 36.7185 18.3815 36.2502 18.7387C35.6943 19.161 35.1381 18.783 34.9381 18.2054C34.6044 17.2498 35.1606 16.0263 35.7833 15.3161C36.2502 14.7827 36.9175 14.4269 37.6051 14.7381C38.5168 15.1382 38.6947 16.2938 38.6725 17.183C38.6504 17.7163 39.8514 17.4941 39.8735 17.0497" fill="white"/>
<path d="M50.6395 14.202C48.4157 15.2687 48.549 18.2916 47.8595 20.3142C48.26 20.2253 48.6601 20.1356 49.0384 20.0474C48.7269 18.447 48.3268 17.0913 46.5921 16.6469C46.301 16.6095 46.0055 16.664 45.7468 16.8027C45.6357 16.8469 45.3464 17.0695 45.6132 17.1359C47.2365 17.5582 47.5701 18.9139 47.8595 20.4032C47.9263 20.6922 48.9716 20.3589 49.0384 20.1363C49.372 19.1807 49.5053 18.1805 49.75 17.2024C49.9947 16.2468 50.3726 14.8686 51.3289 14.4021C51.44 14.3578 51.7294 14.1352 51.4625 14.0688C51.1815 14.0146 50.8904 14.0618 50.6409 14.202" fill="white"/>
<path d="M51.5732 15.5355C51.1921 16.7847 51.2872 18.1307 51.8401 19.3139C52.0401 19.803 53.219 19.4697 53.0411 19.0028C52.5291 17.8789 52.4421 16.6075 52.7964 15.4244C52.9521 14.9354 51.729 15.0672 51.5732 15.5355Z" fill="white"/>
<path d="M58.5349 15.4711C58.3475 16.6376 58.4312 17.8316 58.7796 18.9605C58.9582 19.5385 60.1585 19.2048 59.9806 18.6493C59.6514 17.5928 59.5751 16.4736 59.7581 15.3821C59.8249 14.7598 58.6239 14.8931 58.5349 15.4711Z" fill="white"/>
<path d="M68.8057 14.3141C68.0495 15.1143 69.5395 16.8032 69.9846 17.448C70.1632 17.6924 71.1856 19.2038 70.6294 19.3371C69.9426 19.4116 69.2517 19.4413 68.561 19.426C68.2714 19.4407 67.9927 19.5413 67.7605 19.715C67.5604 19.9151 67.9391 19.9372 68.0495 19.9372C69.0279 19.8704 72.3416 20.1816 71.8969 18.4036C71.7182 17.6924 71.0074 16.9368 70.6069 16.3367C70.3622 15.9588 69.428 14.7142 69.8732 14.2476C70.0518 14.0476 69.7174 14.0254 69.5842 14.0254C69.2981 14.0233 69.0211 14.1261 68.8057 14.3144" fill="white"/>
<path d="M59.5329 12.7576C59.5195 12.6874 59.4905 12.621 59.4482 12.5633C59.4059 12.5057 59.3512 12.4582 59.2882 12.4243C59.1576 12.3883 59.0207 12.381 58.8871 12.4031C58.7534 12.4252 58.6261 12.476 58.514 12.5521C58.4019 12.6282 58.3076 12.7277 58.2378 12.8438C58.1679 12.9599 58.1241 13.0898 58.1094 13.2245V13.4246L58.1762 13.6246C58.1988 13.7057 58.2447 13.7784 58.3082 13.8337C58.3717 13.889 58.45 13.9245 58.5334 13.9358C58.7386 13.9681 58.9487 13.9338 59.1329 13.8378C59.3171 13.7418 59.4656 13.5891 59.5565 13.4024C59.6233 13.1581 58.8449 13.2692 58.7781 13.5135C58.7781 13.5357 58.7338 13.6025 58.756 13.5803C58.7338 13.6025 58.7338 13.6246 58.7113 13.6246L58.7335 13.6025H58.7113C58.7697 13.5606 58.8395 13.5373 58.9114 13.5357H59.0671C59.0228 13.5135 59.0893 13.5578 59.045 13.5357C58.9782 13.4689 58.9782 13.3799 58.9339 13.2913C58.9108 13.2267 58.896 13.1595 58.8896 13.0913C58.8908 13.0055 58.9138 12.9214 58.9564 12.8469C58.9785 12.758 59.001 12.758 59.0675 12.6683C59.0896 12.6462 59.0896 12.6462 59.0675 12.6905C59.0896 12.6683 59.1343 12.6462 59.0453 12.6905C58.9524 12.7302 58.8555 12.76 58.7563 12.7794C58.7563 12.7794 58.6227 12.7573 58.6674 12.7794C58.6006 12.7573 58.6895 12.8016 58.6895 12.8237C58.7117 12.868 58.7342 12.9348 58.7563 12.9795C58.801 13.1352 59.09 13.0684 59.2011 13.0463C59.2679 13.002 59.579 12.8905 59.5347 12.7573" fill="white"/>
<path d="M61.5355 22.625C61.6466 21.9138 61.8245 21.847 61.8245 21.847C64.4266 20.2466 66.0277 21.7359 68.7408 22.1138C71.454 22.4918 73.0108 21.6916 74.434 20.6692C75.8572 19.6468 76.7467 17.313 76.5688 18.2911C76.3258 19.2693 75.8531 20.1756 75.1899 20.9346C74.9674 21.179 71.9209 23.9796 67.9178 23.0237C64.1151 21.8448 62.8694 22.2235 62.1357 22.4457C62.1357 22.4457 61.9356 22.5125 61.7577 22.5568C61.602 22.6457 61.5352 22.6679 61.5352 22.6236" fill="white"/>
<path d="M36.5393 21.4929C36.5393 21.4929 36.5172 21.4261 36.3393 21.4486H36.3171C35.732 21.4785 35.1475 21.3798 34.6046 21.1596C34.3491 21.0618 34.1093 20.927 33.893 20.7595C33.5069 20.4976 33.181 20.1566 32.9367 19.7592C32.7581 19.537 32.6252 19.3148 32.4698 19.0923C31.7896 17.977 31.2305 16.7922 30.8019 15.5582C30.5572 14.9581 29.7788 12.8022 29.7788 12.8022C29.1783 11.2018 28.7114 9.69071 27.9773 8.02351C27.8113 7.57958 27.4899 7.21096 27.0727 6.98612C26.6555 6.76129 26.1709 6.69554 25.7088 6.80107C24.6414 6.95683 24.241 7.60127 23.9741 8.60151C23.3283 11.0003 23.0182 12.9801 22.1065 15.136C22.062 14.9581 22.0175 14.8024 21.9729 14.6691C21.6823 13.5426 21.4594 12.3996 21.3056 11.2464C20.9484 8.97946 20.7719 6.64568 20.1493 4.44514C19.9935 3.9118 19.792 3.2227 19.2151 3.02265C18.3699 2.73365 17.5026 2.8894 17.036 3.64495C16.8638 3.91777 16.7218 4.20847 16.6123 4.51194C13.9688 13.736 9.89641 19.7814 6.25017 23.6041C5.64448 24.2727 4.99835 24.9036 4.31541 25.4931C3.01704 26.6689 1.60962 27.7183 0.112239 28.6271C0.0740811 28.6547 0.0437658 28.6917 0.0242834 28.7345C0.00480106 28.7774 -0.00317532 28.8246 0.00114097 28.8715C0.110489 29.2496 0.336084 29.5836 0.645941 29.8263C0.712743 29.8706 1.42435 30.3597 2.73645 29.4691C5.98331 27.0242 13.7445 19.8239 18.3035 4.46479C18.3035 4.46479 18.8593 4.06469 19.104 6.44277C19.193 7.02077 19.2376 7.59841 19.2826 8.17641C19.5941 10.7545 20.2611 15.4443 21.1952 16.5777H21.1731C21.2618 16.6427 21.3591 16.6951 21.4621 16.7335C21.6983 16.8165 21.9523 16.8358 22.1984 16.7895C22.4445 16.7431 22.674 16.6328 22.8639 16.4695C23.5533 15.8694 23.7091 14.8691 23.9534 13.826C24.2871 12.4257 24.465 11.2257 24.8651 9.84753C24.996 9.32119 25.1747 8.80787 25.3988 8.31394C25.7992 7.4473 26.244 8.09174 26.244 8.09174C26.5123 8.5241 26.7287 8.98657 26.8888 9.46958C27.5336 11.2254 28.0676 12.8479 28.6678 14.5147C29.9577 17.982 31.3363 21.8715 35.3394 22.0716C35.5395 22.0716 36.6515 22.0048 36.6515 21.6715C36.6471 21.6354 36.6348 21.6008 36.6157 21.5699C36.5965 21.5391 36.5708 21.5128 36.5404 21.4929" fill="white"/>
<path d="M18.659 0.000570996C18.4291 0.027038 18.2086 0.107211 18.0155 0.234613C17.8223 0.362014 17.6618 0.533072 17.5469 0.733964C17.3823 0.95847 17.3034 1.23442 17.3244 1.51201C17.4146 1.95852 17.6587 2.35917 18.0142 2.64407L18.0363 2.66622C18.0892 2.73782 18.1557 2.79826 18.2321 2.84406C18.3084 2.88985 18.393 2.92011 18.4811 2.93307C18.5257 2.93534 18.5704 2.92864 18.6124 2.91336C18.6545 2.89809 18.693 2.87454 18.7258 2.84412C19.1484 2.53297 19.3706 1.35483 19.1927 0.486404C19.1896 0.419451 19.1733 0.35377 19.1448 0.293112C19.1163 0.232454 19.0761 0.17801 19.0265 0.132892C18.9769 0.0877727 18.919 0.0528636 18.8559 0.0301593C18.7928 0.00745501 18.7259 -0.00259929 18.659 0.000570996Z" fill="white"/>
<path d="M54.5312 4.53316C53.7096 4.46635 52.6854 4.97755 52.9951 5.95565C53.0495 6.11478 53.1501 6.25409 53.2841 6.35574C53.3953 6.42121 53.5219 6.45574 53.651 6.45574C53.78 6.45574 53.9067 6.42121 54.0178 6.35574C54.2333 6.29355 54.4214 6.16036 54.5515 5.97779C54.6371 5.788 54.6897 5.58507 54.7073 5.37765C54.7516 5.1333 54.0178 5.26655 53.9735 5.48875C53.9293 5.6445 53.9293 6.04424 53.7735 6.08889C53.8557 6.08521 53.938 6.09266 54.0182 6.11104C53.9106 6.0334 53.8252 5.92892 53.7706 5.80802C53.7159 5.68712 53.6939 5.55401 53.7067 5.42194C53.7069 5.28442 53.754 5.15107 53.8403 5.04399C53.9293 4.9329 53.9514 4.9329 54.085 4.9329C54.2732 4.95535 54.4631 4.90794 54.6187 4.79965C54.7077 4.6664 54.6855 4.5328 54.5298 4.5328" fill="white"/>
</svg>
