<?xml version="1.0" encoding="utf-8"?>
<!-- Generator: Adobe Illustrator 26.3.1, SVG Export Plug-In . SVG Version: 6.00 Build 0)  -->
<svg version="1.1" id="Master_Logo" xmlns="http://www.w3.org/2000/svg" xmlns:xlink="http://www.w3.org/1999/xlink" x="0px"
	 y="0px" viewBox="0 0 145.8 162.2" style="enable-background:new 0 0 145.8 162.2;" xml:space="preserve">
<style type="text/css">
	.st0{fill:#FFFFFF;}
</style>
<g>
	<path class="st0" d="M57.1,103c1.8,0,2.1-2.6,2.1-5.2c0-2.6-0.2-5.2-2.1-5.2c-1.9,0-2.1,2.6-2.1,5.2S55.2,103,57.1,103z"/>
	<path class="st0" d="M122,93.1h-0.8v9.4h0.7c2.1,0,2.6-1.7,2.6-4.6C124.5,94.8,123.9,93.1,122,93.1z"/>
	<polygon class="st0" points="82.7,94.1 81.6,100.6 83.9,100.6 	"/>
	<path class="st0" d="M43.1,92.5h-0.5v4.8h0.5c1.7,0,2.3-1.2,2.3-2.4C45.5,93.7,44.8,92.5,43.1,92.5z"/>
	<path class="st0" d="M12.5,95c0-1.2-0.6-2.2-2.4-2.3H9.6v4.5h0.5C11.9,97.2,12.5,96.2,12.5,95z"/>
	<polygon class="st0" points="108.3,100.6 110.7,100.6 109.5,94.1 	"/>
	<polygon class="st0" points="133.6,100.6 136,100.6 134.8,94.1 	"/>
	<path class="st0" d="M46.9,143.2c0-1.2-0.8-2-2.1-1.9v3.9C46.1,145.3,46.9,144.5,46.9,143.2z"/>
	<path class="st0" d="M44.8,147.8v4.4c1.4,0.1,2.2-0.9,2.2-2.2C47,148.6,46.2,147.7,44.8,147.8z"/>
	<polygon class="st0" points="86.1,142.8 86,142.8 85.6,145.2 84.9,149.5 87.3,149.5 86.4,145.2 	"/>
	<path class="st0" d="M0,0v162.2h145.8V0H0z M4.9,4.9h135.9v79.6l-10.3-3.7c-1.9-0.8-2.4-2.5-1.8-4.8l5-19l-16.7,2.8
		c-2.1,0.4-3.5-0.3-4.2-2.1l-2.9-8L96.6,65.6c-2.1,2.5-5.1,1.8-4.3-2.3l6.4-34.2l-9.9,5.5c-1.7,0.9-3.6,0.7-4.6-0.9L72.9,12.3
		L61.7,33.7c-1,1.6-2.8,1.8-4.6,0.9l-9.9-5.5l6.4,34.2c0.8,4.1-2.3,4.8-4.3,2.3L35.7,49.8l-2.9,8c-0.6,1.8-2,2.5-4.2,2.1L12,57.1
		l5,19c0.6,2.3,0.1,4-1.8,4.8L4.9,84.6L4.9,4.9L4.9,4.9z M129.2,97.9c0,1.9-0.6,5.5-2.8,7.3c-1.8,1.4-3.6,1.4-5.9,1.4h-3.9V89.2h5.4
		C127.6,89.2,129.2,92.8,129.2,97.9z M116.3,106.5h-4.6l-0.5-2.8h-3.5l-0.5,2.8h-4.5l4.1-17.3h5.4L116.3,106.5z M102.3,89.2v17.3
		h-4.7l-3.2-8.5v8.5h-4.5V89.2h4.7l3.2,8.4v-8.4H102.3z M75.6,102.6h1.3L80,89.2h5.4l4.1,17.3H85l-0.5-2.8H81l-0.5,2.8h-5.9
		c-4.3,0-7.4-3-7.4-8.9c0-7,4-8.8,7.3-8.8c0.8,0,1.9,0.2,2.7,0.4V93c-0.7-0.3-1.8-0.6-2.5-0.4c-2.2,0.4-2.8,2.4-2.8,5.1
		C71.8,100.3,72.4,102.6,75.6,102.6z M50.5,106.5h-4.7l-3.1-7.6v7.6H38V89.2h5.6c3.9,0,6.7,1.8,6.4,5.9c-0.1,1.5-1.2,3.1-3,3.7
		L50.5,106.5z M50.3,97.9c0-5.1,2-9.1,6.7-9.1c4.1,0,6.1,3,6.6,7.1H66v3.3h-2.4c-0.4,4.4-2.4,7.7-6.7,7.7
		C52.3,107,50.3,103,50.3,97.9z M22.1,92.9v2.9h4v3.7h-4v3.1h4.3v3.9h-8.9V89.2h19.9v3.7h-3.1v13.6h-4.6V92.9L22.1,92.9L22.1,92.9z
		 M4.9,89.2h5.7c2.8,0,6.3,1.2,6.3,5.8c0,4.5-2.8,5.8-6,5.8H9.6v5.7H4.9V89.2z M26.9,154.8h-7.2v-16.1h3.5v13.1h3.7V154.8z
		 M38.8,150.4c0,1.7-0.2,4.6-5.3,4.6c-3.3,0-5.2-1.4-5.2-4.4v-11.9h3.5v10.4c0,1.2-0.2,3,1.7,3c1.7,0,1.7-1.2,1.7-2.4v-11.1h3.5
		V150.4z M44.7,154.8h-3.4v-16.1h3.4c1.4,0,2.5,0,3.7,0.9c1.2,0.9,1.8,2.3,1.8,3.6c0,1.4-0.6,2.5-1.9,3.3c1.5,0.6,2.2,2.4,2.2,3.7
		C50.5,153.4,47.9,154.8,44.7,154.8z M59.1,154.8l-3.1-7.4h-0.1v7.4h-3.5v-16.1H56c2.2,0,6.2,0.2,6.2,4.6c0,1.8-0.8,3.3-2.5,4.2
		l3.1,7.3H59.1z M68,154.8h-3.5v-16.1H68V154.8z M79.2,141.7c-0.4-0.1-0.9-0.2-1.3-0.2c-3.1,0-4.4,2.5-4.4,5c0,2.4,1.3,5.3,4.4,5.3
		c0.4,0,0.9-0.1,1.3-0.2v3c-0.5,0.2-1.1,0.3-1.6,0.3c-5.1,0-7.8-4.1-7.8-8.4c0-4,2.9-8.1,7.7-8.1c0.6,0,1.2,0.1,1.8,0.3L79.2,141.7
		L79.2,141.7z M88.5,154.8l-0.7-2.7h-3.5l-0.6,2.7h-3.5l4.1-16.1H88l4.2,16.1H88.5z M104.8,154.8h-3.3l-4.3-9.7l-0.1,0.1l0.2,1.6
		l0,0.7v7.4h-3.5v-16.1h3.4l4.4,9.7l0-0.1c-0.2-0.8-0.3-1.6-0.3-2.4v-7.2h3.5L104.8,154.8L104.8,154.8z M115.7,141.7H113v13.1h-3.5
		v-13.1h-2.8v-3h9L115.7,141.7L115.7,141.7z M120.7,155c-1,0-2.2-0.3-3-0.8v-3c0.8,0.5,1.6,0.9,2.6,0.9c1.1,0,2-0.7,2-1.7
		c0-1.2-1.1-1.7-2.1-2.4c-2-1.2-3.3-2.4-3.3-4.8c0-2.5,1.6-4.7,4.6-4.7c1.1,0,2.1,0.3,3.1,0.8v3.1c-0.7-0.5-1.6-1-2.5-1
		c-1.1,0-1.8,0.6-1.8,1.6c0,2.6,5.3,2.8,5.3,7.1C125.8,152.9,123.9,155,120.7,155z M141,127.1H4.9v-2.6H141V127.1z M133.8,110.4
		v-0.4h2.5v0.4h-1v3.8h-0.5v-3.8H133.8z M141.1,114.2l-0.5-2.9h0l-1.4,3.1l-1.4-3.1h0l-0.5,2.9h-0.5l0.9-4.5l1.5,3.6l1.6-3.6
		l0.9,4.5H141.1z M137.1,106.5l-0.5-2.8H133l-0.5,2.8H128l4.1-17.3h5.4l4.1,17.3H137.1z"/>
	<path class="st0" d="M56.4,141.3H56v4.3l0.6,0c1.6,0,2.2-1,2.2-2.3C58.8,142.2,58.2,141.2,56.4,141.3z"/>
</g>
</svg>
