<svg id="Layer_1" data-name="Layer 1" xmlns="http://www.w3.org/2000/svg" viewBox="0 0 111.41 43.02"><defs><style>.cls-1{fill:#fff;}</style></defs><g id="Bancde_7" data-name="Bancde 7"><path class="cls-1" d="M48.87,60.35l-.17-.3c-.1-.2-.26-.49-.45-.89A18.06,18.06,0,0,1,47,55.6a18.93,18.93,0,0,1-.47-2.69,12.8,12.8,0,0,1-.09-1.55c0-.52,0-1.09,0-1.68A20,20,0,0,1,47,46a13.06,13.06,0,0,1,.67-1.9c.13-.32.28-.63.43-1s.32-.63.48-1a20.17,20.17,0,0,1,6.13-6.84A20.43,20.43,0,0,1,59.2,33a19.91,19.91,0,0,1,5.14-1.15l.67-.06.68,0h63.19c.66,0,1.31,0,2,0l3.59.15a19,19,0,0,1,5.84,1,18.56,18.56,0,0,1,3.44,1.58l.84.52.29.19-.31-.16c-.19-.1-.49-.25-.88-.43A19.33,19.33,0,0,0,134.42,33l-3.59.15c-.64,0-1.29,0-2,0H67c-.44,0-.89,0-1.3,0l-.63,0-.63.05a18.64,18.64,0,0,0-14.69,9.66c-.16.3-.31.59-.45.89s-.28.59-.39.89c-.23.6-.44,1.18-.64,1.76a18.69,18.69,0,0,0-.83,3.38c-.07.54-.13,1.06-.16,1.59s0,1,0,1.49a18.82,18.82,0,0,0,.21,2.63,20,20,0,0,0,.91,3.61c.15.41.27.72.36.92Z" transform="translate(-44.76 -30.38)"/><path class="cls-1" d="M153.55,58.83a16.61,16.61,0,0,1-1,2.28c-.18.37-.42.71-.63,1.07s-.47.68-.71,1a22.3,22.3,0,0,1-9.89,7.17c-.77.3-1.54.57-2.32.81s-1.58.44-2.39.6l-.2,0-.19-.08c-1.25-.53-2.46-1.06-3.7-1.53s-2.5-.91-3.77-1.28A52.85,52.85,0,0,0,110.94,67c-6.18.32-12.18,1.68-18.25,2.77-3.29.59-6.61,1.1-10,1.38-1.87.16-3.74.26-5.62.26-1.35,0-2.7,0-4-.11,1.35-.08,2.68-.21,4-.35,6.19-.68,12.34-1.85,18.44-3A101.77,101.77,0,0,1,113,65.62a52,52,0,0,1,16.12,2c1.3.39,2.59.83,3.86,1.32s2.41,1,3.61,1.49a20.08,20.08,0,0,0,2-.56c.74-.25,1.49-.48,2.22-.77,4.29-1.7,8.78-4.82,10.8-9.13a21.37,21.37,0,0,0,1.57-13.16,19.55,19.55,0,0,0-1.54-4.51,18.79,18.79,0,0,1,1.92,16.49Z" transform="translate(-44.76 -30.38)"/><path class="cls-1" d="M106.1,44c-3.09.06-3.57,4.19-3.57,6.52a12.11,12.11,0,0,0,.72,4.59,4,4,0,0,0,1.1,1.55,2.93,2.93,0,0,0,3.5,0A4,4,0,0,0,109,55.15a12.11,12.11,0,0,0,.72-4.59C109.68,48.23,109.19,44.1,106.1,44Z" transform="translate(-44.76 -30.38)"/><path class="cls-1" d="M72.64,50.57c0-5.34-3.33-9.67-7.45-9.67s-7.45,4.33-7.45,9.67,3.33,9.66,7.45,9.66a6.17,6.17,0,0,0,3.74-1.3c-1.56-1.66-3.61-3.63-5.62-4a.17.17,0,0,1-.05-.31c3.72-2,6.75.17,8.09,1.31.85.71,1.64,1.48,2.44,2.24a9.84,9.84,0,0,0-2.07-2.9A11.88,11.88,0,0,0,72.64,50.57Z" transform="translate(-44.76 -30.38)"/><path class="cls-1" d="M134.8,30.38H66.13A21.26,21.26,0,0,0,44.76,51.75c.23,12.69,8.8,18.4,18.06,20.58,9.06,2.13,20.54,1,36.88-2.4,21.51-4.44,32.3,1.73,36.52,3.37,0,0,19.95-2.87,19.95-21.55A21.39,21.39,0,0,0,134.8,30.38ZM79.06,66.17a18.14,18.14,0,0,1-7.31-4.38,13,13,0,1,1,3.16-2.6,14.93,14.93,0,0,0,4.25,3c3.25,1.35,8.74,1.94,11.79-.94a.12.12,0,0,1,.19.11C89.8,66.33,83.7,67.4,79.06,66.17ZM96.68,59l-2.46,0a4.38,4.38,0,0,1-2-.42,2.26,2.26,0,0,1-.94-.82A4.69,4.69,0,0,1,89.38,59a10.89,10.89,0,0,1-3.49.52,5.91,5.91,0,0,1-3.78-1,4.62,4.62,0,0,1-1.59-2.66,11.93,11.93,0,0,1-.23-1.8c0-.65-.05-1.28-.05-1.9V46.35s.11-2.8-.89-4.29a.15.15,0,0,1,.11-.23h1.05s4.61-.2,4.61,3.62v7.28q0,.8.06,1.47a3.25,3.25,0,0,0,.28,1.17,1.65,1.65,0,0,0,.76.76,3.27,3.27,0,0,0,1.47.27A4.49,4.49,0,0,0,90,55.84a1.61,1.61,0,0,0,1-1.38V43.71A1.68,1.68,0,0,1,92.62,42h3.21V55.51s0,2.4,1,3.19A.19.19,0,0,1,96.68,59Zm15.59-1.71a8.27,8.27,0,0,1-6.15,2.31h0a8.28,8.28,0,0,1-6.16-2.31,9.62,9.62,0,0,1-2.29-6.7A9.55,9.55,0,0,1,100.06,44a8.89,8.89,0,0,1,12.09,0,9.54,9.54,0,0,1,2.41,6.64A9.62,9.62,0,0,1,112.27,57.32Zm14.78-10.58a.08.08,0,0,1-.13,0c-2-2.17-3.94-1.2-4.45-.77A4.2,4.2,0,0,0,121.32,49v8.38a1.68,1.68,0,0,1-1.68,1.68h-3.2V46.62s.12-2.81-.89-4.3a.13.13,0,0,1,.11-.21h.56a10.55,10.55,0,0,1,3.12.24,3.65,3.65,0,0,1,1.77,1.22,4.31,4.31,0,0,1,1.1-1.31,3.81,3.81,0,0,1,4.55.33A3.1,3.1,0,0,1,127.05,46.74Zm18.62,12.55h-1.06s-4.61.2-4.61-3.62V48.39c0-.52,0-1-.05-1.47a3.24,3.24,0,0,0-.29-1.17,1.67,1.67,0,0,0-.76-.75,3.25,3.25,0,0,0-1.46-.27,4.5,4.5,0,0,0-2.3.55,1.63,1.63,0,0,0-1,1.39V57.42a1.68,1.68,0,0,1-1.68,1.68h-3.2V45.61s0-2.39-1-3.19a.19.19,0,0,1,.13-.32l2.46,0a4.38,4.38,0,0,1,2,.41,2.38,2.38,0,0,1,1,.83c-.19-.26,1.88-1.16,2.08-1.23a9.53,9.53,0,0,1,6,0,4.4,4.4,0,0,1,2.65,3.23,10.79,10.79,0,0,1,.23,1.79c0,.65.06,1.28.06,1.91v5.8s-.12,2.81.88,4.3A.14.14,0,0,1,145.67,59.29ZM146,39.94h-.71v2h-.6v-2H144v-.51h2Zm3.13,2h-.6V40.59l-.57.74h-.25l-.57-.74v1.32h-.6V39.43H147l.9,1.17.91-1.17h.39Z" transform="translate(-44.76 -30.38)"/></g></svg>