<?xml version="1.0" encoding="utf-8"?>
<!-- Generator: Adobe Illustrator 25.4.1, SVG Export Plug-In . SVG Version: 6.00 Build 0)  -->
<svg version="1.1" id="Layer_1" xmlns="http://www.w3.org/2000/svg" xmlns:xlink="http://www.w3.org/1999/xlink" x="0px" y="0px"
	 viewBox="0 0 792 612" style="enable-background:new 0 0 792 612;" xml:space="preserve">
<style type="text/css">
	.st0{fill:#FFFFFF;}
</style>
<g>
	<path class="st0" d="M459.31,272.19c0-3.58,2.9-6.48,6.48-6.48c3.57,0,6.48,2.9,6.48,6.48v46.07c0,0-1.44,11.52,11.52,10.43h10.44
		v-56.15c0,0,0.54-17-16.74-17H438.8v73.15h20.51V272.19z"/>
	<path class="st0" d="M680.43,255.54h-38.69v73.15h20.51v-56.51c0-3.58,2.9-6.48,6.48-6.48c3.57,0,6.48,2.9,6.48,6.48v46.07
		c0,0-1.44,11.52,11.52,10.43h10.44v-56.15C697.18,272.54,697.71,255.54,680.43,255.54z"/>
	<path class="st0" d="M417.45,328.69h10.43v-56.15c0,0,0.55-17.05-16.74-17.05h-17.71v-48.7l-23.38,0.04v121.86h22.91v-56.51
		c0-3.58,2.9-6.48,6.48-6.48c3.58,0,6.48,2.9,6.48,6.48v46.07C405.93,318.26,404.49,329.78,417.45,328.69z"/>
	<path class="st0" d="M320.84,328.56c4.8,0.67,8.7,0.46,9.06,0.45c0.14,0.01,0.85,0.05,1.94,0.05c1.66,0,4.22-0.09,7.11-0.49
		c4.65-0.65,11.13-2.29,15.62-6.38c3.46-3.16,5.29-7.33,5.42-12.41v-35.4c-0.13-5.07-1.96-9.24-5.42-12.4
		c-4.48-4.09-10.96-5.72-15.62-6.38c-5.01-0.71-9.04-0.45-9.03-0.45c-0.04,0-4.06-0.26-9.08,0.45c-4.64,0.65-11.12,2.29-15.62,6.38
		c-3.46,3.16-5.29,7.33-5.43,12.41v35.41c0.14,5.07,1.96,9.23,5.43,12.39C309.71,326.27,316.19,327.9,320.84,328.56z M323.42,270.91
		c0-3.58,2.9-6.48,6.48-6.48c3.58,0,6.47,2.9,6.47,6.48v41.39c0,3.58-2.9,6.48-6.47,6.48c-3.58,0-6.48-2.9-6.48-6.48V270.91z"/>
	<path class="st0" d="M572.04,316.78c0.91,2.03,2.21,3.84,3.92,5.39c0.06,0.06,0.13,0.1,0.19,0.16c0.3,0.26,0.6,0.51,0.91,0.76
		c0.16,0.12,0.32,0.24,0.48,0.36c0.24,0.17,0.48,0.34,0.73,0.5c0.38,0.25,0.76,0.49,1.15,0.72c0.1,0.06,0.19,0.11,0.28,0.17
		c6.61,3.72,14.95,4.22,18.82,4.22c0.89,0,1.54-0.02,1.88-0.04c0.11,0,0.19-0.01,0.22-0.01c0.07,0,0.26,0.01,0.55,0.02
		c2.96,0.12,16.36,0.22,24.12-6.85c1.27-1.16,2.31-2.45,3.14-3.88c1.43-2.46,2.2-5.31,2.28-8.53v-35.4
		c-0.13-5.07-1.96-9.24-5.42-12.4c-0.38-0.35-0.78-0.67-1.19-0.98c-0.19-0.15-0.38-0.3-0.58-0.44c0,0-0.01-0.01-0.01-0.01
		c-7.95-5.68-19.83-5.53-22.38-5.42c-0.24,0.01-0.4,0.02-0.45,0.02c-0.01,0-0.03,0-0.03,0c-0.66-0.05-16.13-0.98-24.7,6.82
		c-1.91,1.74-3.31,3.8-4.21,6.14c-0.32,0.83-0.6,1.69-0.79,2.6c0,0.01-0.01,0.02-0.01,0.03c0,0.02-0.01,0.05-0.01,0.07
		c-0.23,1.13-0.37,2.32-0.4,3.57v35.4c0.02,0.67,0.07,1.32,0.15,1.96C570.9,313.55,571.35,315.23,572.04,316.78z M594.15,312.3
		v-41.39c0-3.58,2.9-6.48,6.48-6.48c3.58,0,6.48,2.9,6.48,6.48v41.39c0,3.58-2.9,6.48-6.48,6.48
		C597.05,318.78,594.15,315.88,594.15,312.3z"/>
	<path class="st0" d="M174.02,304.91c0,0.13,0,0.25,0.01,0.36l0,0.12c0.07,2.56,0.63,5.03,0.88,5.74
		c4.56,16.05,25.06,17.84,33.67,17.86c1.51,0,2.4,0,2.42,0c0.01,0,0.9-0.04,2.38,0c0.21,0,0.44,0.01,0.67,0.01
		c4.16,0,12.22-0.74,19.19-3.59c6.14-2.51,10.58-6.59,12.84-11.8c1.38-3.18,1.91-6.56,1.77-11.28v-6.88l-19.41,0
		c0,0-0.09-0.01-0.25-0.01c-0.99,0-9.66,0.3-9.67,10.62l0,1.53c0,1.12-0.05,2.41-0.45,3.5c-0.98,2.63-3.11,4.36-5.97,4.88
		c0,0-0.49,0.07-0.88,0.08c-0.55,0.01-1.3,0.02-2.29-0.3c-3.27-0.91-5.53-3.9-5.51-7.28v-50.88c0.02-2.45,1.14-4.67,3.09-6.09
		c0.72-0.51,1.35-0.83,2.16-1.1c0.67-0.22,1.62-0.35,2.36-0.35c0.21,0,0.56,0.02,1.05,0.08c0.69,0.11,1.24,0.26,1.8,0.5
		c0.84,0.36,1.56,0.83,2.21,1.42c2.11,1.95,2.43,4.56,2.43,5.94c0,0.51,0,0.93,0,0.93c0,8.57,8.6,8.82,9.58,8.82
		c0.19,0,0.31-0.01,0.31-0.01h19.44v-3.27c0.06-2.65-0.03-4.8-0.26-6.55c-0.22-1.66-0.63-3.3-1.11-4.49
		c-1.26-3.11-2.28-4.56-4.1-6.62c-2.13-2.43-4.63-3.91-6.79-5.04c-7.73-4.05-17.24-4.67-22.23-4.69h0c-1.5,0-2.4,0.01-2.4,0.01
		c-0.01,0-0.9,0-2.46-0.01c-4.75,0-27.93,0.84-33.24,16.83l-0.11,0.33c-0.04,0.12-0.08,0.25-0.12,0.38l-0.06,0.2
		c-0.12,0.39-0.24,0.86-0.36,1.38c-0.22,1-0.29,1.56-0.35,2.06l-0.06,0.43c-0.2,1.39-0.18,8.62-0.16,11.67l0,0.15l-0.02,25.66h0.01
		c-0.01,0.17-0.01,0.46-0.01,1c0,0.99,0.01,2.57,0,4.14c0,0.63,0,1.25,0,1.82C174.02,303.8,174.03,304.41,174.02,304.91z"/>
	<path class="st0" d="M129,329.34c1.57,0,2.52-0.08,2.55-0.08c12.65,0.19,21.87-2.56,27.44-8.17c5.26-5.31,5.17-11.16,5.17-11.4
		v-14.26c0.34-10.92-10.25-15.92-10.3-15.94c-5.35-3.51-21.6-3.23-22.26-3.21c-3.74-0.23-6.47-1.31-8.09-3.22
		c-1.78-2.08-1.58-4.46-1.57-4.52l0-9.89c-0.15-3.41,0.67-5.95,2.43-7.56c2.65-2.42,6.62-1.9,6.71-1.9c2.57,0.05,4.5,0.82,5.74,2.28
		c2.02,2.4,1.51,5.93,1.5,6.03c0,10.07,8.11,10.23,8.2,10.23h18.52l0.02-0.38c0.51-9.26-1.96-16.58-7.34-21.75
		c-10.49-10.09-28.7-8.5-28.84-8.49c-12.91-0.19-22.33,2.53-27.99,8.1c-5.05,4.97-5.1,10.32-5.1,10.55v14.26
		c-0.34,10.92,10.25,15.92,10.3,15.94c5.35,3.51,21.61,3.23,22.27,3.22c3.74,0.23,6.47,1.31,8.09,3.21
		c1.78,2.08,1.58,4.46,1.57,4.52l0,9.89c0.15,3.41-0.67,5.96-2.43,7.56c-2.66,2.42-6.62,1.91-6.71,1.9
		c-0.36-0.01-0.73-0.04-1.11-0.09c-1.13-0.18-2.13-0.55-2.96-1.09c-2.68-1.84-3.17-5.48-3.23-7.55c-0.02-0.7,0.02-1.24,0.04-1.5
		c0.02-0.24,0.03-0.49,0.02-0.73c-0.22-9.65-8.11-9.85-8.19-9.85l-18.05,0l-0.07,3.29c-0.51,9.25,1.97,16.59,7.35,21.8
		C110.79,328.44,123.59,329.34,129,329.34z"/>
	<path class="st0" d="M531.5,329.08c1.25,0,2.01-0.06,2.03-0.06c10.12,0.14,17.49-2.05,21.94-6.54c4.22-4.26,4.15-8.96,4.15-9.15
		v-11.37c0.28-8.76-8.22-12.78-8.25-12.79c-4.29-2.81-17.28-2.59-17.79-2.57c-2.96-0.18-5.11-1.04-6.4-2.53
		c-1.4-1.63-1.24-3.5-1.24-3.56v-7.89c-0.12-2.69,0.52-4.7,1.91-5.97c2.09-1.9,5.22-1.5,5.29-1.49c2.03,0.04,3.55,0.64,4.51,1.79
		c1.59,1.89,1.19,4.67,1.18,4.76c0,8.11,6.55,8.24,6.62,8.24h14.84l0.02-0.38c0.41-7.41-1.57-13.27-5.88-17.41
		c-8.4-8.07-22.96-6.8-23.06-6.79c-10.31-0.16-17.85,2.02-22.38,6.49c-4.05,3.99-4.1,8.29-4.1,8.47v11.37
		c-0.27,8.76,8.22,12.78,8.26,12.79c4.29,2.81,17.28,2.59,17.8,2.58c2.96,0.18,5.11,1.03,6.39,2.53c1.4,1.63,1.24,3.5,1.24,3.56
		v7.89c0.12,2.69-0.52,4.7-1.91,5.97c-2.09,1.9-5.22,1.5-5.29,1.49c-0.29-0.01-0.58-0.03-0.88-0.07c-0.89-0.14-1.68-0.43-2.33-0.85
		c-2.11-1.45-2.5-4.32-2.54-5.95c-0.01-0.55,0.01-0.98,0.03-1.19c0.02-0.19,0.02-0.39,0.02-0.59c-0.18-7.78-6.55-7.94-6.61-7.94
		l-14.48,0l-0.06,2.7c-0.41,7.4,1.58,13.27,5.88,17.45C516.95,328.36,527.18,329.08,531.5,329.08z"/>
	<path class="st0" d="M258.6,345.45c0,27.24-25.7,49.59-61.2,49.59c-28.44,0-57.29-13.43-62.61-33.46
		c-1.98-7.45-2.13-8.15-2.13-8.15s-2.42-14.17-12.57-14.17H94.82v8.62c0,32.32,34.4,57.19,102.58,57.19
		c53.39,0,91.62-21.28,91.62-59.62V206.79H258.6V345.45z"/>
	<path class="st0" d="M296.66,388.91c-4.46,0-6.54,1.47-6.7,4.79h4.09c0.13-1.78,0.94-2.45,2.82-2.45c2.01,0,2.88,0.94,2.88,3.08
		v0.6h-0.77c-3.35,0.07-4.79,0.27-6.3,0.77c-2.04,0.67-3.42,2.61-3.42,4.76c0,2.85,2.18,4.73,5.43,4.73c2.35,0,3.79-0.7,5.3-2.61
		l0.1,2.21h3.75v-10.46C303.83,390.66,301.52,388.91,296.66,388.91z M299.74,397.86c0,3.25-1.11,4.63-3.69,4.63
		c-1.68,0-2.55-0.84-2.55-2.38c0-1.98,1.37-2.75,5.03-2.78c0.27,0,0.67,0,1.21,0V397.86z"/>
	<path class="st0" d="M313.85,399.71v-7.51h3.92v-2.85h-3.92v-4.53l-4.09,2.11v2.41h-3.42v2.85h3.42v7.95c0,2.15,0.3,3.22,1.14,4.02
		c0.7,0.64,1.94,1.04,3.25,1.04c0.94,0,1.64-0.1,3.65-0.44v-2.65c-0.87,0.1-1.37,0.17-1.68,0.17
		C314.49,402.29,313.85,401.55,313.85,399.71z"/>
	<polygon class="st0" points="346.67,399.94 342.98,389.35 338.29,389.35 334.47,399.94 330.88,389.35 326.29,389.35 331.75,404.77 
		336.51,404.77 340.3,393.71 344.12,404.77 348.81,404.77 354.31,389.35 350.32,389.35 	"/>
	<path class="st0" d="M364.26,388.91c-5,0-8.28,3.25-8.28,8.18c0,4.96,3.08,8.11,7.98,8.11c5.1,0,8.35-3.08,8.35-7.91
		C372.31,392.23,369.12,388.91,364.26,388.91z M364.23,402.39c-2.41,0-3.79-2.01-3.79-5.63c0-3.18,1.34-5.03,3.72-5.03
		c2.35,0,3.65,1.91,3.65,5.5C367.82,400.58,366.58,402.39,364.23,402.39z"/>
	<path class="st0" d="M380.15,391.93v-2.58h-4.32v15.42h4.32v-7.17c0-1.94,0.3-2.95,1.17-3.82c0.74-0.77,1.91-1.17,3.18-1.17
		c0.23,0,0.54,0,0.97,0.03v-3.49h-0.13C382.46,389.15,381.22,389.79,380.15,391.93z"/>
	<polygon class="st0" points="403.21,389.35 398.15,389.35 392.45,395.65 392.45,382.44 388.19,382.44 388.19,404.77 392.45,404.77 
		392.45,396.22 398.72,404.77 404.18,404.77 397.11,395.79 	"/>
	<path class="st0" d="M420.67,381.97c-3.82,0-5.43,1.31-5.4,4.39v2.98h-3.12v2.92h3.12v12.5h4.29v-12.5h3.49v-2.92h-3.49v-2.15
		c0-1.68,0.64-2.21,2.58-2.21h0.17c0.17,0,0.44,0,0.8-0.03v-2.92l-0.74-0.03C421.78,382.01,421.21,381.97,420.67,381.97z"/>
	<path class="st0" d="M432.9,388.91c-4.99,0-8.28,3.25-8.28,8.18c0,4.96,3.08,8.11,7.98,8.11c5.1,0,8.35-3.08,8.35-7.91
		C440.95,392.23,437.77,388.91,432.9,388.91z M432.87,402.39c-2.41,0-3.79-2.01-3.79-5.63c0-3.18,1.34-5.03,3.72-5.03
		c2.35,0,3.65,1.91,3.65,5.5C436.46,400.58,435.22,402.39,432.87,402.39z"/>
	<path class="st0" d="M448.79,391.93v-2.58h-4.32v15.42h4.32v-7.17c0-1.94,0.3-2.95,1.17-3.82c0.74-0.77,1.91-1.17,3.18-1.17
		c0.23,0,0.54,0,0.97,0.03v-3.49h-0.13C451.1,389.15,449.86,389.79,448.79,391.93z"/>
	<path class="st0" d="M471.25,388.91c-4.46,0-6.54,1.47-6.7,4.79h4.09c0.13-1.78,0.94-2.45,2.82-2.45c2.01,0,2.88,0.94,2.88,3.08
		v0.6h-0.77c-3.35,0.07-4.79,0.27-6.3,0.77c-2.04,0.67-3.42,2.61-3.42,4.76c0,2.85,2.18,4.73,5.43,4.73c2.35,0,3.79-0.7,5.3-2.61
		l0.1,2.21h3.75v-10.46C478.42,390.66,476.11,388.91,471.25,388.91z M474.33,397.86c0,3.25-1.11,4.63-3.69,4.63
		c-1.68,0-2.55-0.84-2.55-2.38c0-1.98,1.37-2.75,5.03-2.78c0.27,0,0.67,0,1.21,0V397.86z"/>
	<path class="st0" d="M498.97,388.91c-2.08,0-3.32,0.6-4.42,2.21v-8.68h-4.22v22.33h4.09l0.17-2.45c0.9,1.91,2.58,2.88,4.86,2.88
		c3.99,0,6.47-2.95,6.47-7.81C505.9,392.23,503.16,388.91,498.97,388.91z M501.55,397.09c0,3.59-1.11,5.26-3.45,5.26
		c-2.45,0-3.65-1.88-3.65-5.73c0-3.25,1.24-5.03,3.45-5.03c2.31,0,3.59,1.78,3.65,5.1C501.55,396.82,501.55,396.96,501.55,397.09z"
		/>
	<path class="st0" d="M516.46,388.91c-4.76,0-7.74,3.25-7.74,8.48c0,1.37,0.27,2.72,0.84,3.95c1.21,2.65,3.52,3.86,7.31,3.86
		c4.09,0,6.91-2.21,7.04-5.46h-4.06c-0.37,1.94-1.41,2.85-3.32,2.85c-2.18,0-3.52-1.61-3.52-4.26v-0.44h11.2
		c0.03-0.37,0.03-0.64,0.03-0.8C524.24,391.73,521.59,388.91,516.46,388.91z M513.14,395.32c0.27-2.55,1.44-3.86,3.49-3.86
		s3.15,1.37,3.15,3.86H513.14z"/>
	<path class="st0" d="M533.55,399.71v-7.51h3.92v-2.85h-3.92v-4.53l-4.09,2.11v2.41h-3.42v2.85h3.42v7.95c0,2.15,0.3,3.22,1.14,4.02
		c0.7,0.64,1.94,1.04,3.25,1.04c0.94,0,1.64-0.1,3.65-0.44v-2.65c-0.87,0.1-1.37,0.17-1.68,0.17
		C534.19,402.29,533.55,401.55,533.55,399.71z"/>
	<path class="st0" d="M546.66,399.71v-7.51h3.92v-2.85h-3.92v-4.53l-4.09,2.11v2.41h-3.42v2.85h3.42v7.95c0,2.15,0.3,3.22,1.14,4.02
		c0.7,0.64,1.94,1.04,3.25,1.04c0.94,0,1.64-0.1,3.65-0.44v-2.65c-0.87,0.1-1.37,0.17-1.68,0.17
		C547.3,402.29,546.66,401.55,546.66,399.71z"/>
	<path class="st0" d="M560.37,388.91c-4.76,0-7.74,3.25-7.74,8.48c0,1.37,0.27,2.72,0.84,3.95c1.21,2.65,3.52,3.86,7.31,3.86
		c4.09,0,6.91-2.21,7.04-5.46h-4.06c-0.37,1.94-1.41,2.85-3.32,2.85c-2.18,0-3.52-1.61-3.52-4.26v-0.44h11.2
		c0.03-0.37,0.03-0.64,0.03-0.8C568.14,391.73,565.5,388.91,560.37,388.91z M557.05,395.32c0.27-2.55,1.44-3.86,3.49-3.86
		c2.04,0,3.15,1.37,3.15,3.86H557.05z"/>
	<path class="st0" d="M575.99,391.93v-2.58h-4.32v15.42h4.32v-7.17c0-1.94,0.3-2.95,1.17-3.82c0.74-0.77,1.91-1.17,3.18-1.17
		c0.23,0,0.54,0,0.97,0.03v-3.49h-0.13C578.3,389.15,577.06,389.79,575.99,391.93z"/>
	<polygon class="st0" points="610.21,399.94 606.52,389.35 601.83,389.35 598.01,399.94 594.42,389.35 589.83,389.35 595.29,404.77 
		600.05,404.77 603.84,393.71 607.66,404.77 612.35,404.77 617.85,389.35 613.86,389.35 	"/>
	<path class="st0" d="M627.8,388.91c-4.99,0-8.28,3.25-8.28,8.18c0,4.96,3.08,8.11,7.98,8.11c5.1,0,8.35-3.08,8.35-7.91
		C635.85,392.23,632.66,388.91,627.8,388.91z M627.77,402.39c-2.41,0-3.79-2.01-3.79-5.63c0-3.18,1.34-5.03,3.72-5.03
		c2.35,0,3.65,1.91,3.65,5.5C631.35,400.58,630.11,402.39,627.77,402.39z"/>
	<path class="st0" d="M643.69,391.93v-2.58h-4.32v15.42h4.32v-7.17c0-1.94,0.3-2.95,1.17-3.82c0.74-0.77,1.91-1.17,3.18-1.17
		c0.23,0,0.54,0,0.97,0.03v-3.49h-0.13C646,389.15,644.76,389.79,643.69,391.93z"/>
	<rect x="651.73" y="382.44" class="st0" width="4.26" height="22.33"/>
	<path class="st0" d="M670.94,391.46c-1.17-1.78-2.65-2.55-4.83-2.55c-3.96,0-6.57,3.18-6.57,8.01c0,4.83,2.82,8.28,6.74,8.28
		c1.94,0,3.32-0.7,4.66-2.45v2.01h4.22v-22.33h-4.22V391.46z M667.32,402.46c-2.21,0-3.45-1.84-3.55-5.26c0-0.13,0-0.23,0-0.37
		c0-3.22,1.31-5.16,3.49-5.16c1.48,0,3.02,1.24,3.45,2.82c0.2,0.7,0.34,1.81,0.34,2.75C671.04,400.55,669.66,402.46,667.32,402.46z"
		/>
	<path class="st0" d="M308.85,346.69l-8.62,22.33h4.59l1.78-4.89h9.89l1.84,4.89h4.79l-8.48-22.33H308.85z M307.88,360.64
		l3.69-10.63l3.72,10.63H307.88z"/>
	<path class="st0" d="M341.1,349.24h0.17c0.17,0,0.44,0,0.8-0.03v-2.92l-0.74-0.03c-0.6,0-1.17-0.03-1.71-0.03
		c-3.82,0-5.43,1.31-5.4,4.39v2.98h-3.12v2.92h3.12v12.5h4.29v-12.5H342v-2.92h-3.49v-2.15
		C338.51,349.78,339.15,349.24,341.1,349.24z"/>
	<path class="st0" d="M358.16,358.59c0-3.69-2.31-5.43-7.17-5.43c-4.46,0-6.54,1.47-6.71,4.79h4.09c0.13-1.78,0.94-2.45,2.82-2.45
		c2.01,0,2.88,0.94,2.88,3.08v0.6h-0.77c-3.35,0.07-4.79,0.27-6.3,0.77c-2.04,0.67-3.42,2.61-3.42,4.76c0,2.85,2.18,4.73,5.43,4.73
		c2.35,0,3.79-0.7,5.3-2.61l0.1,2.21h3.75V358.59z M354.07,362.11c0,3.25-1.11,4.63-3.69,4.63c-1.68,0-2.55-0.84-2.55-2.38
		c0-1.98,1.37-2.75,5.03-2.78c0.27,0,0.67,0,1.21,0V362.11z"/>
	<path class="st0" d="M381.99,353.16c-2.35,0-4.09,0.97-5.23,2.92c-1.07-2.01-2.61-2.92-4.89-2.92c-2.41,0-4.19,1.01-5.26,2.98
		v-2.55h-4.22v15.42h4.22v-8.72c0-2.82,1.14-4.32,3.29-4.32c1.84,0,2.92,1.17,2.92,3.25v9.79h4.19v-8.18c0-3.42,1.01-4.86,3.32-4.86
		c2.08,0,2.92,1.14,2.95,3.86v9.18h4.22v-9.62C387.49,355.41,385.51,353.16,381.99,353.16z"/>
	<rect x="391.67" y="346.69" class="st0" width="4.19" height="3.39"/>
	<rect x="391.67" y="353.6" class="st0" width="4.19" height="15.42"/>
	<rect x="400.05" y="346.69" class="st0" width="4.26" height="22.33"/>
	<path class="st0" d="M415.54,364.02l-4.19-10.43h-4.69l6.8,15.42l-2.51,5.8H415c3.32-8.72,4.26-11.03,8.48-21.22h-4.12
		L415.54,364.02z"/>
	<path class="st0" d="M440.6,369.45c4.12,0,7.04-2.35,7.04-5.73v-0.34h-4.12v0.23c0,1.91-1.14,3.18-2.85,3.18
		c-2.45,0-3.55-1.88-3.55-6.03c0-3.45,1.11-4.99,3.55-4.99c1.74,0,2.62,0.94,2.82,3.05h4.16c-0.2-3.65-2.65-5.66-6.94-5.66
		c-5.03,0-7.88,3.08-7.88,8.48C432.83,366.47,435.81,369.45,440.6,369.45z"/>
	<path class="st0" d="M466.38,361.54c0-5.06-3.18-8.38-8.05-8.38c-4.99,0-8.28,3.25-8.28,8.18c0,4.96,3.08,8.11,7.98,8.11
		C463.13,369.45,466.38,366.37,466.38,361.54z M458.3,366.64c-2.41,0-3.79-2.01-3.79-5.63c0-3.18,1.34-5.03,3.72-5.03
		c2.35,0,3.65,1.91,3.65,5.5C461.89,364.83,460.65,366.64,458.3,366.64z"/>
	<path class="st0" d="M490.78,369.02H495v-9.62c0-3.99-1.98-6.24-5.5-6.24c-2.35,0-4.09,0.97-5.23,2.92
		c-1.07-2.01-2.62-2.92-4.89-2.92c-2.41,0-4.19,1.01-5.26,2.98v-2.55h-4.22v15.42h4.22v-8.72c0-2.82,1.14-4.32,3.28-4.32
		c1.84,0,2.92,1.17,2.92,3.25v9.79h4.19v-8.18c0-3.42,1.01-4.86,3.32-4.86c2.08,0,2.92,1.14,2.95,3.86V369.02z"/>
	<path class="st0" d="M514.98,361.01c0-4.79-2.58-7.84-6.64-7.84c-2.15,0-3.55,0.74-4.79,2.48v-2.04h-4.32v21.22h4.32v-7.38
		c1.37,1.44,2.75,2.01,4.56,2.01C512.19,369.45,514.98,366.07,514.98,361.01z M506.9,366.74c-2.35,0-3.55-1.88-3.55-5.43
		c0-3.32,1.44-5.26,3.82-5.26c2.28,0,3.55,1.88,3.55,5.2C510.72,364.66,509.28,366.74,506.9,366.74z"/>
	<path class="st0" d="M527.54,359.2c-3.35,0.07-4.79,0.27-6.3,0.77c-2.04,0.67-3.42,2.61-3.42,4.76c0,2.85,2.18,4.73,5.43,4.73
		c2.35,0,3.79-0.7,5.3-2.61l0.1,2.21h3.75v-10.46c0-3.69-2.31-5.43-7.17-5.43c-4.46,0-6.54,1.47-6.7,4.79h4.09
		c0.13-1.78,0.94-2.45,2.82-2.45c2.01,0,2.88,0.94,2.88,3.08v0.6H527.54z M528.32,362.11c0,3.25-1.11,4.63-3.69,4.63
		c-1.68,0-2.55-0.84-2.55-2.38c0-1.98,1.37-2.75,5.03-2.78c0.27,0,0.67,0,1.21,0V362.11z"/>
	<path class="st0" d="M546.38,353.16c-2.51,0-4.12,0.87-5.43,2.85v-2.41h-4.32v15.42h4.32v-8.88c0-2.58,1.34-4.09,3.59-4.09
		c2.15,0,3.02,1.07,3.05,3.79v9.18h4.22v-10.53C551.81,355.11,549.83,353.16,546.38,353.16z"/>
	<path class="st0" d="M563,364.02l-4.19-10.43h-4.69l6.8,15.42l-2.51,5.8h4.06c3.32-8.72,4.26-11.03,8.48-21.22h-4.12L563,364.02z"
		/>
</g>
</svg>
