<?xml version="1.0" encoding="UTF-8"?><svg id="Layer_1" xmlns="http://www.w3.org/2000/svg" viewBox="0 0 420.08 100"><defs><style>.cls-1{fill:#fff;}</style></defs><path class="cls-1" d="M46.17,28.51c2.75,3.43,6.3,6.14,10.33,7.9,4.03,1.76,8.43,2.5,12.82,2.18,.18-.02,.36,.01,.51,.09s.29,.2,.39,.35c.09,.15,.14,.33,.14,.5,0,.18-.06,.35-.16,.5-2.41,3.68-3.89,7.89-4.31,12.27-.42,4.38,.23,8.8,1.89,12.87,.07,.16,.08,.34,.05,.51-.03,.17-.11,.33-.22,.46-.12,.13-.27,.23-.43,.28-.17,.05-.34,.05-.51,0-4.25-1.16-8.72-1.27-13.02-.32-4.3,.95-8.31,2.94-11.67,5.79-.13,.11-.3,.18-.47,.21-.17,.02-.35,0-.51-.07-.16-.07-.3-.18-.4-.32s-.16-.31-.17-.48c-.21-4.39-1.49-8.67-3.72-12.46-2.23-3.79-5.35-6.98-9.09-9.3-.15-.09-.27-.23-.34-.38-.08-.16-.11-.33-.09-.5,.02-.17,.08-.34,.19-.48,.1-.14,.25-.25,.41-.31,4.12-1.56,7.79-4.09,10.71-7.39,2.92-3.3,4.99-7.25,6.04-11.53,.04-.17,.13-.32,.25-.44,.12-.12,.28-.21,.45-.25,.17-.04,.35-.03,.51,.03,.16,.06,.31,.16,.42,.29Z"/><path class="cls-1" d="M50,10.58c7.8,0,15.42,2.31,21.9,6.64,6.48,4.33,11.53,10.49,14.52,17.69,2.98,7.2,3.76,15.13,2.24,22.77-1.52,7.65-5.28,14.67-10.79,20.18-5.51,5.51-12.54,9.27-20.18,10.79-7.65,1.52-15.57,.74-22.77-2.24-7.2-2.98-13.36-8.04-17.69-14.52-4.33-6.48-6.64-14.1-6.64-21.9,.01-10.45,4.17-20.47,11.56-27.86,7.39-7.39,17.41-11.55,27.86-11.56Zm0-10.58c-9.89,0-19.56,2.93-27.78,8.43C14,13.92,7.59,21.73,3.81,30.87,.02,40-.97,50.06,.96,59.75c1.93,9.7,6.69,18.61,13.68,25.6,6.99,6.99,15.9,11.75,25.6,13.68,9.7,1.93,19.75,.94,28.89-2.85,9.14-3.78,16.95-10.19,22.44-18.42,5.49-8.22,8.43-17.89,8.43-27.78,0-13.26-5.27-25.98-14.65-35.36C75.98,5.27,63.26,0,50,0Z"/><path class="cls-1" d="M122.29,60.41h10.23c0,4.23,3.69,7.83,9.7,7.83s9.81-2.84,9.81-6.82c0-3.53-2.81-5.37-6.75-6.25l-7.12-1.7c-9.8-2.59-14.29-7.71-14.29-15.6,0-8.65,7.73-15.6,18.66-15.6,8.99,0,18.66,4.8,18.66,15.87h-10.58c0-3.85-3.93-6.51-7.87-6.51-4.62,0-7.73,2.84-7.73,6.51,0,3.28,3.05,5.11,6.3,5.93l7.99,1.96c11.3,2.84,13.73,9.91,13.73,15.6,0,10.11-9.92,16.04-20.71,16.04-9.8,.04-19.81-6.21-20.03-17.27Zm45.69-10.58c0-16.86,12.6-27.53,27.58-27.53s27.65,10.67,27.65,27.53-12.73,27.92-27.71,27.92-27.52-11.08-27.52-27.95v.03Zm44.18,0c0-10.23-7.67-17.12-16.66-17.12s-16.55,6.8-16.55,17.09,7.56,17.31,16.54,17.31,16.67-6.95,16.67-17.31v.03Zm52.74-25.57l-1.94,10.58c-2.42-1.14-5.06-1.77-7.73-1.83-9.55,0-14.05,10.11-14.05,24.51v19.14h-11.16V23.47h11.16v11.93c2.69-9.35,7.99-13.07,14.74-13.07,3.55-.06,7.3,.82,8.99,1.9v.03Zm56.86-.82v53.17h-11.05v-7.94c-3.53,6.07-11.05,9.1-18.1,9.1-14.29,0-26.08-10.93-26.08-27.79s11.8-27.66,25.96-27.66c7.42,0,14.73,2.96,18.23,8.97v-7.89h11.09l-.04,.04Zm-11.11,26.39c.03-2.22-.38-4.42-1.21-6.48-.83-2.06-2.06-3.93-3.62-5.51-1.56-1.58-3.42-2.83-5.46-3.69-2.05-.86-4.24-1.3-6.46-1.3-8.99,0-16.29,6.95-16.29,16.98s7.3,17.31,16.29,17.31,16.76-6.6,16.76-17.34v.03Zm54.61-25.57l-1.94,10.58c-2.42-1.14-5.06-1.77-7.73-1.83-9.55,0-14.05,10.11-14.05,24.51v19.14h-11.11V23.47h11.17v11.93c2.69-9.35,7.99-13.07,14.73-13.07,3.5-.06,7.24,.82,8.93,1.9v.03Zm54.6,30.2h-41.88c1.44,8.65,7.74,12.88,16.3,12.88,6.05,0,11.79-2.58,14.73-7.51l8.82,4.41c-4.62,8.91-14.05,13.46-24.09,13.46-15.17,0-27.09-11.06-27.09-27.92s12.17-27.53,27.09-27.53,26.34,10.67,26.34,27.41c-.02,1.54-.15,3.12-.21,4.81Zm-10.76-8.95c-1-8.33-7.12-12.88-15.17-12.88s-14.16,4.11-15.72,12.88h30.89Z"/></svg>