<?xml version="1.0" encoding="UTF-8"?>
<svg width="452px" height="152px" viewBox="0 0 452 152" version="1.1" xmlns="http://www.w3.org/2000/svg" xmlns:xlink="http://www.w3.org/1999/xlink">
    <title>ThinkMarkets-logo-stacked white (1)</title>
    <g id="Page-1" stroke="none" stroke-width="1" fill="none" fill-rule="evenodd">
        <g id="Artboard" transform="translate(-97.000000, -53.000000)">
            <g id="ThinkMarkets-logo-stacked-white-(1)" transform="translate(97.000000, 53.000000)">
                <g id="Group" transform="translate(165.459204, 76.759204)">
                    <polygon id="Path" fill="#FFFFFF" fill-rule="nonzero" points="55.3 63.2 44.8 63.2 44.8 17 44.6 17 32.6 63.2 22.5 63.2 10.7 17 10.5 17 10.5 63.2 0 63.2 0 1.5 17 1.5 27.7 46 27.9 46 38.4 1.5 55.2 1.5 55.2 63.2"></polygon>
                    <path d="M98.7,54.4 C98.7,59.7 99.9,60.9 101.3,61.4 L101.3,63.2 L88.5,63.2 C87.8,61.1 87.7,60.4 87.4,57.9 C84.7,60.7 80.9,64.4 72.9,64.4 C66.1,64.4 59.2,60.6 59.2,51.3 C59.2,42.5 64.8,38 72.3,36.9 L82.9,35.3 C84.8,35 87,34.3 87,31.8 C87,26.8 82.3,26.6 79.2,26.6 C73.3,26.6 72.3,30.2 71.9,32.9 L60.5,32.9 C61.9,19.1 71.4,17.2 80.6,17.2 C86.9,17.2 98.5,19.1 98.5,30.2 L98.5,54.4 L98.7,54.4 Z M87.2,41.3 C86,42.2 84.1,43 79.2,43.7 C74.8,44.5 71.2,45.6 71.2,50.5 C71.2,54.6 74.4,55.9 76.7,55.9 C81.9,55.9 87.3,52.5 87.3,47 L87.3,41.3 L87.2,41.3 Z" id="Shape" fill="#FFFFFF" fill-rule="nonzero"></path>
                    <path d="M104.5,18.2 L113.8,18.2 L113.8,26 L114,26 C116.5,21.4 119.2,17 126.3,17 C127.1,17 127.8,17.1 128.6,17.2 L128.6,29.2 C127.6,29 126.3,29 125.2,29 C116,29 114.3,34.8 114.3,39.7 L114.3,63.1 L104.5,63.1 L104.5,18.2 L104.5,18.2 Z" id="Path" fill="#FFFFFF" fill-rule="nonzero"></path>
                    <polygon id="Path" fill="#FFFFFF" fill-rule="nonzero" points="142.2 63.2 132.7 63.2 132.7 1.5 142.2 0 142.2 36.1 157.7 18.2 170.8 18.2 154.3 36.4 170.1 63.2 157.3 63.2 146.9 44.5 142.1 49.4 142.1 63.2"></polygon>
                    <path d="M209.4,50 C206.3,60.8 197.3,64.3 189.7,64.3 C177,64.3 167.3,58.2 167.3,39.7 C167.3,34.3 169.2,17 188.8,17 C197.7,17 209.9,21.2 209.9,41.7 L209.9,43.8 L178.1,43.8 C178.4,47.2 180.1,54.8 189.6,54.8 C192.9,54.8 197.3,53.1 198.2,49.9 L209.4,49.9 L209.4,50 Z M198.7,36.2 C198,28.9 192.4,26.7 188.6,26.7 C183,26.7 179.1,30.2 178.4,36.2 L198.7,36.2 Z" id="Shape" fill="#FFFFFF" fill-rule="nonzero"></path>
                    <g transform="translate(189.500000, 6.000000)" id="Path">
                        <path d="M9.2,16.2 C3.6,16.2 0.7,19.7 0,25.7 L18.3,25.7 C17.7,18.4 13,16.2 9.2,16.2 Z"></path>
                        <path d="M43.5,20.5 L43.5,12.3 L35.4,12.3 L35.4,0 L25.9,1.5 L25.9,12.3 L17,12.3 C18.7,14.4 20.6,17 21.5,20.5 L25.9,20.5 L25.9,48.3 C25.9,54 26.7,57.7 36.6,57.7 L38.1,57.7 C39.9,57.7 41.7,57.6 43.5,57.5 L43.5,48.8 C42.7,48.9 41.9,49 41.1,49 C36.4,49 35.3,48 35.3,45.5 L35.3,20.5 L43.5,20.5 Z" fill="#FFFFFF" fill-rule="nonzero"></path>
                    </g>
                    <path d="M263.1,32.6 C262.6,29.7 261.4,26 255,26 C248.6,26 247.7,28.5 247.7,30.4 C247.7,37.5 275.8,32.3 275.8,48.9 C275.8,62 263.1,64.4 256.1,64.4 C245.9,64.4 236.9,62.1 236.6,50.1 L246.8,50.1 C246.8,53.9 249,55.4 256.5,55.4 C262.6,55.4 264,52.4 264,50.8 C264,43.3 236.1,48.9 236.1,32.1 C236.1,25.5 240.2,17.1 254.3,17.1 C263.1,17.1 272.7,20 273.7,32.7 L263.1,32.7 L263.1,32.6 Z" id="Path" fill="#FFFFFF" fill-rule="nonzero"></path>
                </g>
                <g id="Group" transform="translate(144.659204, 10.859204)" fill="#FFFFFF" fill-rule="nonzero">
                    <polygon id="Path" points="0.1 0.9 50.1 0.9 50.1 8.3 29.2 8.3 29.2 62.6 20.9 62.6 20.9 8.3 0 8.3 0 0.9"></polygon>
                    <path d="M90.2,62.6 L82.6,62.6 L82.6,33.2 C82.6,27.1 80.9,23.2 73.7,23.2 C67.5,23.2 61.2,26.8 61.2,38.1 L61.2,62.6 L53.6,62.6 L53.6,1 L61.2,5.68434189e-14 L61.2,23.7 L61.4,23.7 C63.5,20.9 67.3,16.4 74.5,16.4 C81.5,16.4 90.2,19.2 90.2,32 L90.2,62.6 Z" id="Path"></path>
                    <path d="M95,9.5 L95,0.9 L102.6,0.9 L102.6,9.5 L95,9.5 Z M102.5,62.6 L94.9,62.6 L94.9,17.7 L102.5,17.7 L102.5,62.6 Z" id="Shape"></path>
                    <path d="M143.5,62.6 L135.9,62.6 L135.9,35 C135.9,27.2 133.7,23.2 126.3,23.2 C122,23.2 114.5,25.9 114.5,38.1 L114.5,62.6 L106.9,62.6 L106.9,17.7 L114,16.8 L114,24.1 L114.2,24.1 C115.8,21.7 120,16.5 127.8,16.5 C134.8,16.5 143.5,19.3 143.5,32.1 L143.5,62.6 Z" id="Path"></path>
                    <polygon id="Path" points="185.1 62.6 175.4 62.6 161.4 39.9 155.1 45.6 155.1 62.6 147.9 62.6 147.9 1 155.2 0.1 155.2 36.8 174.5 17.8 184.1 17.8 166.9 34.4"></polygon>
                </g>
                <path d="M451.859204,84.6592043 C451.859204,88.9592043 448.559204,92.2592043 444.259204,92.2592043 C439.959204,92.2592043 436.659204,88.9592043 436.659204,84.6592043 C436.659204,80.3592043 439.959204,77.0592043 444.259204,77.0592043 C448.559204,77.0592043 451.859204,80.4592043 451.859204,84.6592043 Z M437.859204,84.6592043 C437.859204,88.2592043 440.559204,91.1592043 444.259204,91.1592043 C447.959204,91.1592043 450.659204,88.2592043 450.659204,84.6592043 C450.659204,81.0592043 447.959204,78.1592043 444.259204,78.1592043 C440.559204,78.1592043 437.859204,81.0592043 437.859204,84.6592043 Z M442.559204,89.0592043 L441.559204,89.0592043 L441.559204,80.2592043 L444.959204,80.2592043 C446.959204,80.2592043 447.859204,81.1592043 447.859204,82.6592043 C447.859204,84.1592043 446.859204,84.8592043 445.659204,85.0592043 L448.259204,88.9592043 L446.959204,88.9592043 L444.459204,85.0592043 L442.559204,85.0592043 L442.559204,89.0592043 Z M444.059204,84.2592043 C445.359204,84.2592043 446.659204,84.2592043 446.659204,82.7592043 C446.659204,81.5592043 445.659204,81.2592043 444.559204,81.2592043 L442.559204,81.2592043 L442.559204,84.2592043 L444.059204,84.2592043 Z" id="Shape" fill="#FFFFFF" fill-rule="nonzero"></path>
                <g id="Group" transform="translate(0.000000, 0.000000)" fill="#FFFFFF" fill-rule="nonzero">
                    <path d="M123.159204,16.6592043 C155.859204,42.8592043 161.059204,90.5592043 134.859204,123.159204 C108.659204,155.759204 60.9592043,161.059204 28.3592043,134.859204 C-4.24079571,108.659204 -9.54079571,60.9592043 16.6592043,28.3592043 C42.8592043,-4.24079571 90.5592043,-9.54079571 123.159204,16.6592043 Z M21.7592043,32.5592043 C-2.14079571,62.3592043 2.65920429,105.859204 32.4592043,129.759204 C62.2592043,153.659204 105.759204,148.859204 129.659204,119.059204 C153.559204,89.3592043 148.759204,45.7592043 118.959204,21.8592043 C89.1592043,-2.04079571 45.6592043,2.75920429 21.7592043,32.5592043 Z M115.659204,25.9592043 C143.159204,48.0592043 147.559204,88.2592043 125.459204,115.759204 C103.359204,143.259204 63.1592043,147.659204 35.6592043,125.559204 C8.15920429,103.459204 3.75920429,63.2592043 25.8592043,35.7592043 C47.9592043,8.25920429 88.1592043,3.85920429 115.659204,25.9592043 Z M80.7592043,117.259204 L70.9592043,117.259204 L70.9592043,117.259204 C72.2592043,118.459204 73.9592043,119.259204 75.8592043,119.259204 C77.7592043,119.259204 79.5592043,118.459204 80.7592043,117.259204 Z M42.7592043,98.7592043 C39.7592043,98.7592043 37.2592043,100.659204 37.2592043,103.659204 C37.2592043,105.159204 37.7592043,106.259204 38.3592043,107.359204 L38.3592043,107.359204 L36.8592043,107.359204 L36.8592043,108.359204 L38.8592043,108.359204 C39.1592043,108.959204 39.4592043,109.859204 39.4592043,110.559204 C39.4592043,112.459204 38.2592043,113.959204 36.8592043,114.859204 L36.8592043,114.859204 L37.9592043,116.459204 C38.6592043,115.959204 39.4592043,115.659204 40.3592043,115.659204 C41.2592043,115.659204 42.0592043,115.959204 42.8592043,116.159204 C43.6592043,116.459204 44.4592043,116.659204 45.2592043,116.659204 C46.5592043,116.659204 47.7592043,116.359204 48.7592043,115.559204 L48.7592043,115.559204 L47.7592043,113.959204 C47.2592043,114.459204 46.4592043,114.859204 45.6592043,114.859204 C44.9592043,114.859204 44.2592043,114.659204 43.6592043,114.459204 C42.9592043,114.259204 42.2592043,114.059204 41.3592043,114.059204 C40.4592043,114.059204 39.6592043,114.359204 38.8592043,114.759204 L38.8592043,114.759204 L39.0381739,114.615607 C40.4611243,113.469444 41.6592043,112.371204 41.6592043,110.259204 C41.6592043,109.559204 41.4592043,108.959204 41.1592043,108.459204 L41.1592043,108.459204 L44.4592043,108.459204 L44.4592043,107.359204 L40.6592043,107.359204 C40.1592043,106.159204 39.4592043,105.259204 39.4592043,103.659204 C39.4592043,101.959204 40.9592043,100.559204 42.8592043,100.559204 C45.1592043,100.559204 46.2592043,102.259204 46.3592043,104.959204 L46.3592043,104.959204 L48.3592043,104.959204 C48.4592043,100.859204 46.2592043,98.7592043 42.7592043,98.7592043 Z M84.2592043,110.259204 L67.5592043,110.259204 L67.5592043,110.259204 C66.0592043,110.259204 64.7592043,111.459204 64.7592043,113.059204 C64.7592043,114.559204 65.9592043,115.859204 67.5592043,115.859204 L84.2592043,115.859204 L84.2592043,115.859204 C85.7592043,115.859204 87.0592043,114.659204 87.0592043,113.059204 C87.0592043,111.459204 85.7592043,110.259204 84.2592043,110.259204 Z M110.859204,97.4592043 C108.959204,97.4592043 107.459204,98.0592043 106.259204,99.3592043 C105.159204,100.459204 104.459204,102.059204 104.059204,103.959204 L104.059204,103.959204 L102.759204,103.959204 L102.159204,105.459204 L103.859204,105.459204 L103.859204,105.459204 L103.859204,106.759204 L102.759204,106.759204 L102.159204,108.259204 L103.959204,108.259204 C104.659204,112.959204 106.959204,115.259204 110.859204,115.259204 C112.259204,115.259204 113.459204,114.959204 114.559204,114.259204 L114.559204,114.259204 L114.559204,111.759204 C113.859204,112.359204 113.359204,112.859204 112.859204,113.059204 C112.259204,113.459204 111.659204,113.559204 110.859204,113.559204 C108.359204,113.559204 106.859204,111.859204 106.359204,108.459204 L106.359204,108.459204 L111.559204,108.459204 L112.159204,106.959204 L106.159204,106.959204 L106.159204,106.959204 L106.159204,105.759204 L112.459204,105.759204 L113.059204,104.259204 L106.259204,104.259204 C106.459204,102.959204 106.959204,101.859204 107.559204,101.059204 C108.359204,100.059204 109.359204,99.5592043 110.559204,99.5592043 C111.759204,99.5592043 112.859204,100.059204 113.959204,101.159204 L113.959204,101.159204 L115.159204,98.9592043 C113.759204,97.9592043 112.359204,97.4592043 110.859204,97.4592043 Z M84.2592043,103.259204 L67.5592043,103.259204 L67.5592043,103.259204 C66.0592043,103.259204 64.7592043,104.559204 64.7592043,106.059204 C64.7592043,107.559204 65.9592043,108.859204 67.5592043,108.859204 L84.2592043,108.859204 L84.2592043,108.859204 C85.7592043,108.859204 87.0592043,107.659204 87.0592043,106.059204 C87.0592043,104.459204 85.7592043,103.259204 84.2592043,103.259204 Z M75.8592043,44.6592043 C63.0592043,44.6592043 52.7592043,55.0592043 52.7592043,67.8592043 C52.7592043,75.9592043 62.8592043,86.6592043 62.8592043,91.9592043 L62.8592043,96.6592043 L62.8592043,96.6592043 C62.8592043,99.2592043 64.9592043,101.259204 67.4592043,101.259204 L84.1592043,101.259204 L84.1592043,101.259204 C86.7592043,101.259204 88.7592043,99.1592043 88.7592043,96.6592043 L88.7592043,91.9592043 L88.7592043,91.9592043 C88.7592043,86.6592043 98.8592043,75.9592043 98.8592043,67.8592043 C98.9592043,55.1592043 88.6592043,44.6592043 75.8592043,44.6592043 Z M119.859204,57.1592043 L118.059204,57.1592043 C115.959204,57.1592043 114.759204,58.4592043 114.359204,60.2592043 L114.359204,60.2592043 L113.759204,63.5592043 L111.559204,63.5592043 L111.259204,65.1592043 L113.459204,65.1592043 L111.759204,73.9592043 C111.359204,76.1592043 110.959204,76.3592043 108.459204,76.3592043 L108.459204,76.3592043 L108.159204,78.1592043 L109.759204,78.1592043 C112.359204,78.1592043 113.459204,76.9592043 114.259204,72.5592043 L114.259204,72.5592043 L115.559204,65.1592043 L118.059204,65.1592043 L118.359204,63.5592043 L115.959204,63.5592043 L116.659204,60.2592043 C116.859204,59.4592043 117.259204,59.0592043 118.159204,59.0592043 L118.159204,59.0592043 L119.559204,59.0592043 L119.859204,57.1592043 Z M30.0592043,53.6592043 L27.4592043,53.6592043 L31.8592043,61.8592043 L29.6592043,61.8592043 L29.6592043,63.2592043 L32.5592043,63.2592043 L32.9592043,64.0592043 L32.9592043,65.0592043 L29.5592043,65.0592043 L29.5592043,66.4592043 L32.9592043,66.4592043 L32.9592043,70.6592043 L35.2592043,70.6592043 L35.2592043,66.4592043 L38.6592043,66.4592043 L38.6592043,65.0592043 L35.2592043,65.0592043 L35.2592043,64.0592043 L35.6592043,63.2592043 L38.6592043,63.2592043 L38.6592043,61.8592043 L36.4592043,61.8592043 L40.7592043,53.6592043 L38.2592043,53.6592043 L34.2592043,62.0592043 L30.0592043,53.6592043 Z M77.0592043,19.4592043 L75.7592043,19.4592043 L75.7592043,21.0592043 C73.0592043,21.1592043 70.8592043,23.1592043 70.8592043,26.0592043 C70.8592043,28.8592043 72.3592043,29.8592043 75.7592043,30.6592043 L75.7592043,30.6592043 L75.7592043,36.9592043 C73.8592043,36.6592043 72.4592043,35.3592043 72.3592043,33.2592043 L72.3592043,33.2592043 L70.3592043,33.2592043 C70.6592043,36.5592043 72.6592043,38.5592043 75.7592043,38.8592043 L75.7592043,38.8592043 L75.7592043,40.8592043 L77.0592043,40.8592043 L77.0592043,38.8592043 C80.0592043,38.5592043 82.2592043,36.7592043 82.2592043,33.6592043 C82.2592043,30.7592043 79.6592043,29.5592043 78.4592043,29.2592043 L78.4592043,29.2592043 L77.0592043,28.8592043 L77.0592043,22.9592043 C78.5592043,23.2592043 79.4592043,24.1592043 79.7592043,25.7592043 L79.7592043,25.7592043 L81.7592043,25.7592043 C81.1592043,23.0592043 79.6592043,21.3592043 77.0592043,21.0592043 L77.0592043,21.0592043 L77.0592043,19.4592043 Z M77.0592043,30.9592043 C78.8592043,31.4592043 80.1592043,32.0592043 80.1592043,33.8592043 C80.1592043,35.9592043 78.8592043,36.8592043 77.0592043,36.9592043 L77.0592043,36.9592043 Z M75.7592043,22.8592043 L75.7592043,28.4592043 C74.1592043,27.9592043 73.0592043,27.4592043 73.0592043,25.7592043 C73.0592043,23.9592043 74.2592043,23.0592043 75.7592043,22.8592043 L75.7592043,22.8592043 Z" id="Combined-Shape"></path>
                </g>
            </g>
        </g>
    </g>
</svg>